<svg xmlns="http://www.w3.org/2000/svg" xmlns:xlink="http://www.w3.org/1999/xlink" id="Layer_1" width="435.052" height="250.891" x="0" y="0" enable-background="new 0 0 435.052 250.891" version="1.1" viewBox="0 0 435.052 250.891" xml:space="preserve"><path fill="#00A651" d="M394.74,205.123l3.934,0.148c0.42,0.01,0.841,0.014,1.262,0.014c2.764,0,5.373-0.188,7.074-0.345	l0.103-0.012c2.447-0.283,3.944-0.717,5.385-1.176l0.124-0.04c1.33-0.464,2.605-1.01,4.011-1.713c1.456-0.729,2.722-1.499,3.9-2.383	c1.053-0.792,2.245-1.687,3.364-2.869c0.988-0.996,1.924-2.081,2.79-3.232c0.942-1.263,1.693-2.61,2.305-3.767l0.061-0.12	c1.984-4.036,2.999-8.309,3.015-12.702c0.3-6.928-1.497-13.126-5.382-18.479c-1.023-1.366-1.927-2.43-2.84-3.343	c-0.904-0.905-1.967-1.809-3.345-2.844l-0.164-0.117c-1.029-0.705-2.272-1.522-3.701-2.243c-4.087-2.045-8.385-3.082-12.775-3.082	h-68.103c3.278-1.974,6.271-3.948,8.733-5.762c2.868-2.017,5.331-3.93,7.583-5.896c3.825-3.453,6.899-6.782,10.33-11.194	c1.697-2.265,3.229-4.664,4.551-6.792c1.651-2.781,2.96-5.149,4.004-7.239l0.082-0.175c1.146-2.56,2.084-4.768,2.891-6.809	c0.816-2.148,1.382-4.103,1.93-5.993l0.136-0.473c0.474-1.776,0.961-3.685,1.317-5.616l0.027-0.163	c0.278-1.887,0.466-3.502,0.586-5.027c0.416-4.54,0.191-8.938-0.697-13.5c-1.881-9.062-6.137-17.24-12.594-24.25	c-0.991-1.114-2.154-2.255-3.626-3.551l-0.729-0.62c-0.382-0.326-0.771-0.657-1.166-0.987c-0.29-6.047-1.75-11.833-4.349-17.231	c-0.646-1.414-1.377-2.667-2.023-3.775l-0.297-0.505c-0.749-1.187-1.611-2.362-2.707-3.693c-1.053-1.369-2.219-2.573-3.018-3.373	c-1.259-1.253-2.519-2.269-3.576-3.09c-1.409-1.1-2.822-2.057-4.157-2.822c-1.193-0.7-2.8-1.607-4.685-2.44	c-1.737-0.83-3.447-1.486-5.085-1.952c-2.854-0.962-6.396-1.724-9.5-2.042c-1.415-0.147-2.508-0.147-3.385-0.147	c-4.109,0-10.27,0.552-16.369,5.384c-0.646,0.532-1.299,1.155-1.928,1.833c-5.92-0.506-11.736,0.624-17.12,3.313	c-1.179,0.594-2.188,1.24-3.134,1.846l-0.136,0.09c-1.016,0.703-1.972,1.453-2.713,2.126c-1.656,1.456-2.926,3.031-3.683,4.07	c-0.856-0.278-1.644-0.536-2.305-0.758l-0.224-0.068c-1.553-0.434-2.661-0.735-3.864-0.961l-0.101-0.019	c-1.016-0.189-2.067-0.385-3.234-0.525l-0.3-0.025c-1.065-0.057-2.392-0.128-3.967-0.128l-0.623,0.022	c-1.329,0.057-2.983,0.126-4.941,0.307l-0.127,0.013c-2.203,0.265-4.663,0.66-6.922,1.112c-2.356,0.469-4.542,1.005-6.527,1.602	c-1.932,0.595-3.674,1.245-5.213,1.818L232.79,22.8c-1.57,0.633-3.021,1.305-4.558,2.111c-1.444,0.754-2.702,1.548-3.917,2.315	l-0.114,0.072c-3.923,2.542-7.529,5.772-10.719,9.6c-0.998,1.131-1.98,2.354-3,3.74l-0.113,0.161	c-2.634,3.917-4.536,7.703-5.987,11.913l-0.306,1.042c-0.315,1.089-0.672,2.323-0.993,3.653l-0.039,0.172	c-0.302,1.504-0.649,3.347-0.924,5.614c-0.28,2.271-0.468,4.874-0.528,7.332c-0.044,1.839-0.028,3.645-0.013,5.238	c0.006,0.663,0.012,1.275,0.012,1.815l0.059,0.981c0.094,1.291,0.158,2.171,0.273,3.06c-6.928,4.681-14.346,9.022-21.132,12.357	c-3.657,1.792-6.629,3.114-9.115,4.053c-2.337,0.9-4.539,1.622-6.951,2.277c-1.67,0.462-3.357,0.817-4.712,1.102l-0.808,0.171	c-1.245,0.208-1.99,0.324-2.561,0.372l-0.648,0.101c-0.437,0.101-0.904,0.15-1.92,0.251l-0.531,0.06	c-0.866,0.13-2.054,0.233-3.557,0.363l-1.047,0.092c-2.023,0.122-4.392,0.308-6.241,0.49c-1.62,0.062-2.548,0.12-3.493,0.179	c-0.526,0.003-1.035,0.02-1.52,0.038c-0.372,0.013-0.726,0.027-1.056,0.027l-0.337,0.013c-0.298,0.021-0.565,0.034-0.822,0.04	c0.409-0.227-0.016-1.833,21.963-11.589c0,0-8.671-9.496-19.514-12.722l-0.099-0.036c-5.247-1.819-10.575-2.841-15.838-3.039	c-5.504-0.208-11.217,0.409-16.414,1.775c-1.709,0.48-3.353,1.032-4.553,1.434l-0.236,0.087c-1.174,0.467-2.542,1.033-3.827,1.707	c-1.265,0.598-2.41,1.259-3.271,1.772l-0.135,0.083c-0.978,0.629-1.933,1.252-2.858,1.964l-0.155,0.125	c-0.435,0.367-0.836,0.715-1.229,1.057c-0.336,0.292-0.664,0.578-1.006,0.866l-0.429,0.412c-0.213,0.233-0.427,0.458-0.639,0.682	c-0.486,0.514-0.989,1.045-1.49,1.649c-0.651,0.782-1.387,1.666-2.084,2.746c-0.729,1.054-1.332,2.029-1.854,2.998l-0.291,0.545	c-0.434,0.807-0.925,1.721-1.347,2.691l-0.12,0.305c-0.146,0.415-0.303,0.828-0.461,1.245c-0.254,0.67-0.511,1.351-0.768,2.127	c-0.984,3.131-1.559,6.354-1.714,9.605c-0.713,0.86-1.332,1.727-1.872,2.515c-0.915,1.268-1.719,2.612-2.452,3.876l-0.075,0.135	c-3.635,6.79-5.125,13.375-4.691,20.675c0.134,2.745,0.798,5.734,1.257,7.527l-38.077,0c-5.987,0.073-11.545,1.873-16.518,5.349	l-0.24,0.18c-1.094,0.877-2.159,1.747-3.155,2.747c-0.929,0.925-1.837,1.99-2.885,3.393c-0.93,1.27-1.712,2.532-2.3,3.703	c-2.049,3.965-3.095,8.266-3.112,12.785c-0.296,6.783,1.51,12.987,5.367,18.441l0.077,0.104c0.857,1.143,1.797,2.229,2.794,3.229	c0.955,1.014,1.944,1.796,2.818,2.489l0.607,0.474c1.194,0.846,2.444,1.594,3.825,2.285c1.323,0.663,2.592,1.214,3.879,1.688	l0.154,0.055c3.941,1.292,7.734,1.347,11.082,1.395l4.621,0.123L394.74,205.123z"/><path fill="#F58220" fill-rule="evenodd" d="M403.066,195.906l2.048-0.059c2.85-0.065,5.705-0.619,8.56-2.107	c0.927-0.437,1.729-0.993,2.533-1.55c0.808-0.621,1.553-1.181,2.297-1.924c0.683-0.684,1.362-1.426,1.923-2.23	c2.975-4.153,3.84-8.555,3.591-12.892c0-2.854-0.557-5.705-2.047-8.681c-0.49-0.807-0.985-1.674-1.544-2.541	c-0.561-0.744-1.24-1.55-1.923-2.171c-0.744-0.681-1.489-1.302-2.297-1.857c-3.532-2.604-7.314-3.657-11.093-3.657	c0,0-74.444,0-81.691,0c-2.461-6.121-5.611-9.927-5.611-9.927c3.474-1.428,5.23-2.286,8.765-4.27	c3.531-1.86,7.252-4.089,10.228-6.074c2.915-1.919,5.081-3.536,7.003-4.959c1.798-1.487,3.347-2.789,4.713-4.091	c1.424-1.301,2.664-2.543,3.841-3.904c1.239-1.304,2.358-2.728,3.532-4.217c1.117-1.488,2.235-3.098,3.412-4.834	c3.283-5.146,6.199-11.159,7.996-16.674c0.619-1.858,1.114-3.656,1.489-5.333c0.371-1.674,0.681-3.16,0.866-4.647	c0.247-1.551,0.312-2.977,0.434-4.277c0.125-3.721-0.246-7.064-1.114-10.54c-1.613-6.321-4.712-13.139-11.591-19.898	c-2.109-1.983-4.217-3.717-6.388-5.085c0.437-6.136-0.56-12.394-3.844-18.781c-0.432-0.926-0.992-1.792-1.484-2.6	c-1.426-2.172-3.165-4.278-5.518-6.383c-0.681-0.624-1.428-1.241-2.297-1.798c-0.803-0.622-1.667-1.181-2.663-1.801	c-3.1-1.734-6.323-3.161-9.735-3.969c-1.048-0.31-2.165-0.554-3.16-0.74c-0.992-0.126-1.981-0.25-2.848-0.31	c-1.677-0.064-3.04-0.064-4.277,0.06c-2.667,0.314-5.271,1.056-7.749,2.977c-1.86,1.424-3.164,3.411-3.784,5.146	c-2.663-0.806-4.894-1.182-7.561-1.116c-2.479,0.061-5.021,0.495-7.626,1.487c-0.804,0.309-1.548,0.681-2.293,1.054	c-0.684,0.372-1.363,0.744-1.921,1.175c-0.62,0.371-1.177,0.807-1.674,1.302c-0.497,0.374-0.994,0.871-1.424,1.364	c-0.436,0.495-0.809,0.99-1.182,1.362c-0.557,0.811-0.74,1.179-1.114,1.802c-0.619,1.111-1.112,2.293-1.485,3.41	c-1.245,0.867-15.16,10.172-22.52,17.396c0,0-1.051-4.237,1.84-8.298c4.938-5.708,11.539-10.715,11.539-10.715	c-0.992-0.369-13.51-2.798-24.459-0.06c-1.797,0.437-3.408,0.993-4.835,1.548c-1.487,0.497-2.725,0.995-3.905,1.613	c-2.354,1.121-4.338,2.356-6.381,3.908c-1.056,0.741-2.05,1.548-3.041,2.415c-4.089,3.845-7.126,7.997-9.174,12.026	c-0.436,1.057-0.928,2.046-1.363,3.224c-0.373,1.056-0.805,2.171-1.116,3.411c-0.373,1.241-0.62,2.541-0.929,4.152	c-0.309,1.612-0.557,3.597-0.681,5.95c-0.184,2.359-0.25,5.21-0.184,7.748c0.059,2.603,0.244,4.961,0.371,6.384	c0.186,1.487,0.308,1.987,0.372,2.543c0.123,0.559,0.248,1.115,0.308,1.612c-4.027,2.916-8.122,5.704-12.457,8.369	c-4.279,2.602-8.806,5.083-12.401,6.943c-3.593,1.921-6.258,3.096-8.741,4.09c-2.356,1.053-4.524,1.859-6.507,2.539	c-1.92,0.688-3.719,1.18-5.515,1.675c-1.738,0.434-3.474,0.808-5.582,1.118c-2.105,0.368-4.583,0.742-5.948,0.866	c-1.429,0.186-1.736,0.251-1.984,0.251c-0.311,0-0.557,0-1.24,0.06c-0.684,0.122-1.671,0.186-2.852,0.31	c-1.177,0.062-2.476,0.183-3.41,0.183c-0.931,0.127-1.485,0.127-1.982,0.188c-1.117,0.061-2.478,0.125-3.968,0.248	c-0.746,0-1.547,0-2.602,0.062c-0.993,0-2.296,0.064-3.346,0.064c-1.179,0-2.111,0-2.729-0.064	c-1.303-0.062-1.674-0.062-2.542-0.062c-2.046-0.188-4.526-0.437-6.879-1.24c-0.746-0.248-1.614-0.621-2.359-1.176	c-1.672-1.243-1.487-2.543-0.99-3.782c0.063-0.25,0.187-0.5,0.31-0.744c0.251-0.373,0.681-1.054,1.239-1.737	c0.311-0.373,0.746-0.867,1.238-1.364c0.562-0.557,0.935-0.866,1.365-1.299c0.312-0.187,0.558-0.436,0.871-0.682	c0.308-0.31,0.803-0.686,1.3-1.056c0.311-0.247,0.56-0.434,1.303-0.869c0.684-0.557,1.797-1.236,2.975-1.984	c2.294-1.358,4.524-2.603,6.756-3.531c2.108-0.932,4.214-1.673,6.137-2.295c-0.868-0.431-1.734-0.807-2.792-1.36	c-2.228-0.992-5.018-2.111-7.683-2.732c-5.578-1.425-11.099-1.795-16.738-1.115c-1.427,0.188-2.914,0.434-4.276,0.683	c-1.426,0.373-2.73,0.745-3.967,1.117c-1.178,0.371-2.297,0.805-3.223,1.179c-0.995,0.43-1.862,0.804-2.666,1.239	c-0.743,0.431-1.553,0.929-2.171,1.363c-1.858,1.238-3.47,2.601-5.207,4.647c-0.436,0.559-0.927,1.18-1.366,1.799	c-0.43,0.621-0.867,1.361-1.3,2.105c-2.727,4.959-3.907,10.417-3.595,15.748c-4.215,4.338-6.57,8.802-8.058,13.512	c-1.057,3.656-1.303,7.189-0.932,10.599c0.125,0.994,0.248,1.984,0.5,2.979c0.182,1.115,0.494,2.295,0.865,3.531	c0.373,1.176,0.868,2.541,1.364,3.718c0.928,2.169,1.921,4.093,3.223,6.14H32.506c-2.788,0-5.701,0.62-8.619,2.106	c-0.868,0.37-1.734,0.93-2.538,1.551c-0.806,0.556-1.548,1.177-2.233,1.857c-0.682,0.621-1.303,1.427-1.917,2.171	c-2.98,4.153-3.847,8.554-3.6,12.956c0,2.788,0.559,5.7,2.044,8.614c0.435,0.867,0.994,1.735,1.555,2.543	c0.613,0.805,1.235,1.547,1.917,2.23c0.685,0.743,1.427,1.303,2.233,1.924c1.736,1.239,3.533,2.106,5.331,2.726	c1.981,0.616,4.154,0.932,6.445,0.99H403.066z" clip-rule="evenodd"/><path fill="#FFF" d="M305.861,91.847l-0.559-0.495l-7.251-6.511c-1.363-1.115-2.727-1.982-4.152-2.726	c-0.063-0.063-0.188-0.063-0.248-0.126c0.06-0.184,0.185-0.372,0.248-0.557c1.548-3.16,3.409-6.198,5.329-8.616	c2.044-2.54,4.029-4.465,6.074-5.825c1.984-1.306,3.905-2.048,5.888-2.42c1.984-0.372,4.091-0.125,5.769,0.681	c0.803,0.433,1.549,0.931,2.229,1.612c0.681,0.62,1.178,1.367,1.613,2.23c0.43,0.808,0.68,1.738,0.804,2.73	c0.188,0.991,0.126,1.984,0,3.038c0,0.307-0.061,0.741-0.618,2.104c-0.562,1.365-1.737,3.722-3.226,5.643	c-1.486,1.982-3.406,3.531-5.517,5.083C310.263,89.117,308.092,90.542,305.861,91.847z"/><path fill="#FFF" d="M283.053,69.903l-0.497-0.495l-7.252-6.572c-1.552-1.178-2.915-2.106-4.468-2.85	c1.615-3.35,3.599-6.573,5.581-9.114c2.046-2.539,4.09-4.463,6.139-5.826c1.918-1.303,3.902-2.046,5.89-2.418	c1.855-0.372,3.838-0.185,5.454,0.56c0.122,0.061,0.185,0.061,0.249,0.121c0.864,0.374,1.608,0.931,2.228,1.552	c0.684,0.681,1.239,1.425,1.615,2.231c0.434,0.868,0.68,1.798,0.866,2.789c0.124,0.928,0.124,1.986,0,2.974	c0,0.373-0.062,0.747-0.68,2.108c-0.562,1.366-1.677,3.781-3.227,5.706c-0.31,0.432-0.681,0.803-1.052,1.237	c-1.304,1.424-2.79,2.603-4.401,3.779C287.452,67.176,285.342,68.601,283.053,69.903z"/><path fill="#FFF" fill-rule="evenodd" d="M401.072,187.024c0,12.62-10.231,22.852-22.852,22.852H54.951	c-12.621,0-22.852-10.231-22.852-22.852l0,0c0-12.621,10.231-22.853,22.852-22.853h323.27	C390.841,164.171,401.072,174.403,401.072,187.024L401.072,187.024z" clip-rule="evenodd"/><path fill="#8ED8F8" fill-rule="evenodd" d="M358.67,82.164c0-0.934-0.062-1.862-0.188-2.73	c-0.188-1.674-0.62-3.41-1.178-5.27c-1.175-3.967-3.161-7.747-6.2-11.777c-0.802-1.117-1.669-2.169-2.85-3.47	c-1.239-1.365-2.852-2.977-4.71-4.652c-1.926-1.674-4.154-3.472-6.508-5.205c0.248-0.621,0.432-1.117,0.682-1.863	c0.185-0.617,0.369-1.054,0.556-1.607c0-0.249,0-0.374,0.125-0.622c0.064-0.499,0.307-1.489,0.434-2.48	c0.432-2.853,0.25-5.765-0.93-8.616c-0.682-1.859-1.798-3.658-3.72-5.765c-1.61-1.615-3.158-2.853-4.585-3.721	c-0.562-0.308-1.056-0.619-1.303-0.805c-0.56-0.312-0.62-0.312-0.808-0.437c-0.372-0.184-0.743-0.371-1.177-0.557	c-0.188-0.186-0.559-0.312-0.807-0.435c-0.373-0.186-0.992-0.494-1.55-0.679c-2.045-0.932-3.783-1.617-5.642-2.422	c0.931,1.181,1.799,2.357,2.357,3.041c0.556,0.742,0.746,0.928,0.929,1.175c0.993,1.303,1.553,2.171,2.172,3.102	c0.061,0.185,0.184,0.374,0.37,0.683c0.62,0.99,1.801,3.16,2.354,4.65c0.437,1.426,0.807,2.973,0.807,4.275	c0.06,0.867,0.06,1.859-0.062,2.851c-0.06,0.438-0.123,0.992-0.248,1.24c-0.125,0.492-0.125,0.558-0.125,0.742	c-0.184,0.435-0.244,0.869-0.431,1.426c-0.124,0.56-0.373,1.24-0.493,1.676c-0.373,0.865-0.811,2.107-1.304,3.222	c-0.066-0.187-0.126-0.374-0.126-0.621c0-0.125-0.123-0.557-0.187-1.112c-0.185-0.559-0.247-1.117-0.371-1.678	c-0.123-0.247-0.184-0.494-0.184-0.743c-0.126-0.371-0.188-0.494-0.188-0.679c-0.125-0.436-0.186-0.684-0.309-1.055	c-0.188-0.558-0.31-0.992-0.496-1.485c-0.123-0.373-0.187-0.685-0.371-1.182c-0.25-0.681-0.809-1.983-1.492-3.223	c-0.369-0.681-0.744-1.364-1.174-1.918c-0.372-0.558-0.742-1.057-1.116-1.552c-1.054-1.239-2.293-2.479-3.533-3.346	c-1.924-1.361-4.094-2.235-6.138-2.79c-0.432-0.061-0.869-0.188-1.299-0.247l-0.438-0.064c-0.616-0.123-1.301-0.186-2.047-0.248	c-0.739-0.06-1.607-0.06-2.54-0.06c-0.869,0-1.796,0.06-2.416,0.06c-0.685,0.062-0.931,0.125-1.178,0.188	c-0.314,0-0.56,0-1.92,0.183c-1.302,0.188-3.601,0.562-5.955,0.87c2.296,0.437,4.589,0.869,6.199,1.179	c1.613,0.369,2.479,0.556,3.287,0.805c1.982,0.68,3.968,1.548,5.953,3.038c0.37,0.309,0.679,0.559,1.054,0.867	c1.05,0.931,2.043,1.985,2.85,3.223c0.311,0.496,0.619,0.932,0.863,1.363c0.25,0.435,0.437,0.872,0.497,1.118	c0.092,0.181,0.123,0.227,0.132,0.236c-0.003-0.001-0.006-0.002-0.006,0.013c-0.373-0.619-0.808-1.118-1.547-1.735	c-0.433-0.374-0.746-0.559-1.18-0.869c-0.311-0.187-0.621-0.312-0.993-0.497c-0.245-0.124-0.435-0.186-0.616-0.31	c-0.124,0-0.188-0.061-0.314-0.061c-0.246-0.125-0.369-0.185-0.496-0.25c-0.12,0-0.243-0.06-0.557-0.184	c-0.371-0.124-0.807-0.247-1.363-0.374c-0.557-0.186-1.116-0.309-1.424-0.372c-0.622-0.183-0.687-0.183-0.933-0.248	c-0.187-0.058-0.371-0.058-0.62-0.185c-0.245,0-0.496-0.06-0.989-0.122c-0.561-0.064-1.304-0.186-2.108-0.25	c-0.806-0.063-1.733-0.063-2.602,0c-0.931,0-1.8,0.064-2.854,0.186c-0.99,0.127-1.984,0.249-3.226,0.558	c-1.234,0.247-2.664,0.622-3.469,0.868c-0.806,0.248-0.93,0.312-1.116,0.373c-0.31,0.061-0.557,0.185-0.807,0.247	c-0.249,0.063-0.494,0.124-0.806,0.247c-0.434,0.124-0.867,0.374-1.364,0.561c-0.248,0.123-0.553,0.308-0.926,0.493	c-0.44,0.189-0.932,0.497-1.428,0.806c-0.62,0.308-1.18,0.623-2.172,1.177c-0.988,0.562-2.228,1.366-3.472,2.17	c-1.238,0.81-2.416,1.677-3.098,2.108c-0.685,0.56-0.93,0.744-1.24,0.931c-0.618,0.432-1.055,0.745-1.613,1.174	c-0.062,0.063-0.434,0.376-0.865,0.688c-0.372,0.373-0.804,0.618-1.117,0.928c-0.868,0.681-2.292,1.861-3.533,2.912	c-1.362,1.118-2.538,2.174-3.784,3.287c-0.432,0.373-0.862,0.745-1.175,1.055c-0.123,0.063-0.245,0.185-0.494,0.434	c-0.246,0.246-0.682,0.621-1.116,0.993c-0.683,0.617-1.424,1.301-1.982,1.794c-0.248,0.247-0.497,0.495-1.306,1.303	c-0.868,0.745-2.292,2.107-3.161,2.913c-0.803,0.743-1.052,0.99-1.24,1.179c-0.123,0.185-0.247,0.245-0.37,0.435	c-0.247,0.183-0.868,0.742-1.427,1.364c-0.37,0.368-0.804,0.741-1.05,0.991c-0.249,0.244-0.438,0.371-0.561,0.558	c-0.371,0.309-0.683,0.618-0.992,0.988c-0.185,0.125-0.371,0.311-0.744,0.623c-0.31,0.371-0.804,0.865-1.363,1.363	c-0.496,0.495-0.989,0.991-1.364,1.363c-0.683,0.618-0.988,0.931-1.423,1.363c-0.56,0.495-0.744,0.744-1.18,1.116	c-0.248,0.246-0.558,0.561-0.93,0.87c-0.312,0.308-0.618,0.558-0.805,0.745c-0.248,0.184-0.373,0.307-0.437,0.431	c-0.243,0.188-0.741,0.618-1.176,1.053c-0.56,0.5-1.114,0.994-1.55,1.427c-0.184,0.184-0.434,0.372-0.93,0.805	c-0.558,0.495-1.364,1.179-2.168,1.983c-0.809,0.684-1.677,1.427-2.729,2.357c-1.053,0.992-2.357,2.167-3.779,3.348	c-1.303,1.176-2.791,2.355-4.34,3.656c-1.551,1.237-3.102,2.605-4.71,3.844c-1.616,1.301-3.286,2.478-4.273,3.287	c-0.998,0.739-1.306,0.989-1.617,1.175c-0.309,0.187-0.619,0.434-0.806,0.559c-0.308,0.25-0.308,0.188-0.433,0.312	c-0.371,0.31-0.807,0.618-1.179,0.868c-0.187,0.058-0.245,0.182-0.928,0.617c-0.62,0.374-1.862,1.24-3.165,2.049	c-1.237,0.802-2.602,1.67-4.15,2.604c-1.552,0.866-3.287,1.921-4.9,2.79c-1.547,0.801-2.911,1.548-5.638,2.599	c-2.667,1.117-6.573,2.665-10.414,3.969c-3.78,1.242-7.502,2.355-11.159,3.162c-3.594,0.868-7.065,1.425-10.845,1.921	c-3.721,0.436-7.627,0.745-11.842,0.872c-4.152,0.06-8.553-0.127-11.342-0.249c-2.79-0.128-4.029-0.248-5.271-0.378	c-2.104-0.246-4.093-0.37-6.261-0.621c-0.245-0.058-0.37-0.058-0.557-0.121c-0.184,0-1.115-0.184-1.733-0.311	c0,0-0.744-0.187-1.363-0.371c-1.427-0.495-3.352-1.363-4.773-2.542c-0.375-0.311-0.747-0.619-0.932-0.864	c-0.558-0.499-0.743-0.622-0.868-0.932c-0.063-0.06-0.121-0.308-0.186-0.498c-0.063-0.184-0.125-0.555-0.125-0.62	c-0.122-0.305-0.184-0.431-0.247-0.929c-0.185-0.928-0.31-2.168-0.185-3.287c0.247-3.158,1.609-6.321,5.078-9.418	c0.438-0.434,0.935-0.868,1.553-1.366c0.558-0.434,1.303-0.931,1.798-1.237c0.496-0.371,0.804-0.561,1.113-0.745	c0.312-0.186,0.686-0.308,1.552-0.807c0.931-0.497,2.479-1.301,3.967-2.106c-1.736,0.06-3.47,0.123-4.463,0.183	c-0.992,0-1.301,0-1.55,0c-0.311,0.065-0.619,0.065-0.806,0.065c-0.187,0-0.25,0.061-0.375,0.061c-0.247,0-0.616,0.064-1.175,0.064	c-0.371,0.058-0.867,0.125-1.177,0.125c-0.372,0.059-0.561,0.059-0.682,0.059c-0.187,0-0.311,0.063-0.685,0.123	c-0.371,0.062-0.803,0.062-1.425,0.19c-1.798,0.307-4.276,0.925-6.57,1.983c-1.364,0.619-2.417,1.237-3.47,1.918	c-1.426,0.992-2.977,2.418-4.029,3.783c-0.872,0.99-1.551,2.045-2.172,3.16c-0.742,1.24-1.302,2.602-1.797,4.09	c-0.245,0.807-0.557,1.55-0.742,2.603c-0.248,0.993-0.499,2.297-0.622,3.222c-0.37,1.864-0.37,2.918-0.558,4.343	c-0.248,0.247-0.435,0.557-0.746,0.868c-0.619,0.683-0.619,0.743-0.988,1.178c-0.188,0.248-0.433,0.556-0.622,0.806	c-0.498,0.742-0.561,0.867-0.867,1.303c-0.187,0.248-0.312,0.494-0.497,0.806c-0.125,0.125-0.185,0.245-0.37,0.555	c-0.434,0.618-1.115,1.798-1.553,2.789c-1.113,2.356-1.983,5.271-2.167,7.625c-0.248,2.54,0,5.394,0.684,8.06	c0.122,0.499,0.246,1.05,0.552,1.797c0.25,0.745,0.562,1.736,1.059,2.729c0.433,1.054,1.053,2.168,1.426,2.85	c0.37,0.622,0.432,0.808,0.554,0.931c0.125,0.312,0.25,0.56,0.371,0.744c0.125,0.123,0.248,0.372,0.435,0.681	c0.185,0.126,0.249,0.309,0.745,1.054c0.437,0.684,1.305,1.984,2.171,3.285c-0.125-1.546-0.25-3.094-0.375-3.963	c0-0.868,0-1.057-0.061-1.241c0-0.187,0-0.372-0.06-0.746c-0.066-1.177-0.127-3.47,0.06-5.33c0.369-3.286,0.929-7.502,5.144-10.724	c0.62-0.433,1.177-0.749,1.796-1.056c0.377-0.25,0.748-0.37,1.181-0.553c0.497-0.126,0.992-0.312,1.612-0.502	c0.621-0.122,1.302-0.308,2.046-0.431c0.743-0.125,1.611-0.248,2.17-0.309c0.62,0,0.99,0,1.487,0	c0.495-0.063,1.053-0.063,1.425-0.063c0.682,0,0.993,0.063,1.424,0.063c0.621,0,1.241,0,1.863,0.122	c0.497,0,1.424,0.061,2.413,0.249c1.676,0.187,3.413,0.434,5.271,0.806c2.417,0.804,5.021,1.734,7.443,2.541	c2.788,0.927,5.389,1.796,8.055,2.666c1.242,0.373,2.481,0.806,3.779,1.177c1.306,0.436,2.48,0.803,3.535,1.114	c1.116,0.373,2.415,0.746,3.905,1.119c0.747,0.244,1.549,0.494,2.791,0.866c1.24,0.31,2.974,0.867,4.707,1.363	c1.74,0.559,3.474,0.99,4.654,1.365c1.176,0.373,1.797,0.557,2.354,0.68c1.239,0.372,2.417,0.679,3.595,1.054	c0.621,0.125,1.177,0.312,3.224,0.808c1.981,0.555,5.393,1.487,8.493,2.294c3.097,0.804,5.823,1.487,8.118,1.982	c2.294,0.617,4.215,0.991,6.57,1.554c2.295,0.431,5.085,1.052,6.695,1.358c1.676,0.435,2.17,0.497,2.663,0.619	c0.499,0.063,0.994,0.187,1.307,0.249c0.68,0.123,0.801,0.123,1.238,0.25c0.495,0.06,1.113,0.244,1.673,0.31	c0.31,0.121,0.869,0.184,1.424,0.308c1.055,0.188,1.863,0.312,2.729,0.437c0.371,0.124,0.927,0.184,1.426,0.247	c0.87,0.184,1.613,0.31,2.293,0.369c0.125,0.064,0.312,0.064,0.682,0.188c0.373,0,0.928,0.122,1.797,0.189	c0.808,0.185,1.862,0.307,2.544,0.37c0.802,0.121,1.3,0.186,1.794,0.247c0.435,0.063,0.932,0.124,1.553,0.184	c0.617,0.063,1.421,0.187,2.293,0.25c0.924,0.062,1.979,0.126,2.727,0.187c1.61,0.12,2.414,0.12,3.595,0.247	c0.372,0,0.496,0.062,0.868,0.062c0.245,0,0.495,0.063,0.68,0.124c0.122,0,0.434,0.062,0.807,0.062	c0.37,0.062,0.558,0.062,0.867,0.062c0.372,0.062,1.239,0.062,1.92,0.125c0.436,0,0.931,0.062,1.553,0.062c0.31,0,0.618,0,1.363,0	s1.923,0.062,2.974,0c1.057,0,1.984,0,2.912-0.125c0.934-0.062,1.921-0.123,3.038-0.246c1.058-0.126,2.355-0.253,3.04-0.373	c0.743-0.061,0.932-0.061,1.054-0.061c0.87-0.189,1.982-0.312,3.41-0.56c0.557-0.062,1.485-0.247,2.229-0.433	c1.486-0.185,2.479-0.374,3.967-0.747c0.495-0.121,1.117-0.247,1.799-0.431c0.371-0.125,0.99-0.249,1.735-0.437	c0.373-0.124,0.803-0.187,1.486-0.373c0.684-0.185,1.673-0.494,2.668-0.743c2.042-0.554,4.338-1.177,6.692-1.797	c1.305-0.372,2.541-0.743,4.961-1.548c1.425-0.436,3.225-0.991,5.081-1.611c1.363-0.435,2.853-0.931,4.216-1.488	c3.283-1.18,6.324-2.482,9.67-4.09c2.788-1.302,5.768-2.792,8.991-4.402c0.739-0.437,1.486-0.804,2.292-1.24	c4.029-2.23,8.304-4.65,12.521-7.252c1.054-0.744,2.104-1.488,3.224-2.231c0.99-0.681,2.107-1.426,3.533-2.483	c1.424-1.047,3.224-2.353,5.146-3.963c1.98-1.616,4.092-3.407,5.949-5.145c1.857-1.796,3.535-3.532,4.957-5.084	c2.789-3.038,4.778-5.7,6.511-8.433c0.869-1.424,1.674-2.724,2.354-3.964c2.418-4.586,3.658-8.552,4.277-12.833	C358.67,85.695,358.792,83.958,358.67,82.164z M284.779,51.664c-0.621,0.244-1.239,0.559-1.856,0.992	c-3.287,2.23-6.14,6.63-7.253,11.157c-0.497-0.372-0.933-0.683-1.305-0.993c-0.433-0.246-0.619-0.433-0.991-0.681	c-0.371-0.248-0.801-0.561-1.301-0.869c-0.868-0.43-1.612-0.805-1.986-0.992c0.498-1.051,0.996-2.046,1.485-2.976	c0.438-0.928,0.935-1.737,1.552-2.726c0.622-1.052,1.428-2.354,2.854-4.029c1.488-1.673,3.531-3.783,5.145-5.143	c1.551-1.246,2.603-1.862,3.656-2.357l0.25-0.064c1.113-0.494,2.229-0.802,3.286-0.992c1.113-0.123,2.167-0.123,3.034-0.059	c0.867,0.059,1.426,0.186,1.982,0.372c1.554,0.555,2.918,1.301,4.277,3.038c0.376,0.436,0.684,0.99,0.933,1.547	c0.31,0.494,0.496,1.118,0.681,1.738c0.122,0.678,0.245,1.36,0.245,2.166c0.063,0.871,0,1.798-0.183,2.604	c-0.126,0.747-0.31,1.243-0.562,1.8c-0.245,0.556-0.617,1.177-0.988,1.733c-0.617-2.417-2.416-4.521-5.146-5.453	C290.358,50.608,287.507,50.483,284.779,51.664z M322.158,75.402c-0.186,0.745-0.371,1.303-0.559,1.862	c-0.311,0.556-0.618,1.112-0.99,1.671c-0.681-2.417-2.48-4.461-5.206-5.515c-2.234-0.809-5.024-0.931-7.747,0.248	c-0.684,0.312-1.304,0.619-1.925,1.054c-3.223,2.23-6.075,6.573-7.253,11.157c-0.433-0.372-0.989-0.744-1.3-0.994	c-0.374-0.308-0.622-0.494-0.994-0.681c-0.309-0.31-0.805-0.619-1.299-0.869c-0.808-0.492-1.554-0.868-1.923-1.051	c0.434-1.054,0.931-1.982,1.424-2.976c0.499-0.869,0.933-1.671,1.554-2.725c0.679-1.057,1.486-2.354,2.911-4.032	c1.427-1.674,3.531-3.782,5.083-5.143c1.548-1.241,2.668-1.858,3.722-2.295c0.056-0.065,0.122-0.065,0.246-0.122	c1.113-0.437,2.11-0.808,3.282-0.991c1.055-0.127,2.17-0.127,2.978-0.065c0.866,0.065,1.486,0.248,2.046,0.434	c1.487,0.5,2.852,1.242,4.212,2.976c0.376,0.497,0.683,0.99,0.997,1.548c0.183,0.558,0.433,1.117,0.619,1.799	c0.186,0.62,0.308,1.301,0.308,2.107C322.344,73.668,322.284,74.6,322.158,75.402z" clip-rule="evenodd"/><g><path fill-rule="evenodd" d="M304.242,75.29c2.738-2.303,5.975-3.235,8.527-3.05 c2.55,0.127,4.479,1.373,5.664,2.491c1.306,1.119,1.985,2.118,2.237,3.235c-0.811,1.996-1.93,3.861-3.732,5.729 c-1.807,1.864-4.169,3.794-6.16,5.228c-1.931,1.367-3.362,2.236-4.918,2.986l-7.776-6.908 C299.139,81.142,301.441,77.531,304.242,75.29z" clip-rule="evenodd"/></g><g><path fill="#FFF" fill-rule="evenodd" d="M314.597,77.016c-0.497,0.061-1.055,0.061-1.674,0.928 c-0.496,0.745-0.31,1.923,0.681,2.419c0.746,0.371,1.55,0.435,2.418-0.309c0.684-0.746,0.868-1.551,0-2.481 C315.648,77.205,315.153,77.076,314.597,77.016z" clip-rule="evenodd"/></g><g><path fill-rule="evenodd" d="M281.385,53.356c2.745-2.311,6.054-3.309,8.614-3.119 c2.557,0.125,4.429,1.435,5.677,2.556c1.31,1.061,1.932,2.064,2.181,3.184c-0.743,1.996-1.929,3.871-3.679,5.739 c-1.808,1.935-4.179,3.805-6.176,5.242c-1.937,1.435-3.373,2.308-4.93,3.058l-7.861-6.925 C276.335,59.223,278.641,55.601,281.385,53.356z" clip-rule="evenodd"/></g><g><path fill="#FFF" fill-rule="evenodd" d="M291.847,55.072c-0.497,0.062-1.055,0.062-1.737,0.927 c-0.496,0.747-0.246,1.861,0.683,2.359c0.807,0.37,1.614,0.497,2.48-0.248c0.684-0.808,0.806-1.613,0-2.48 C292.839,55.197,292.344,55.072,291.847,55.072z" clip-rule="evenodd"/></g><g><path fill="#8ED8F8" fill-rule="evenodd" d="M241.391,67.346c-0.063,0.312-0.375,1.055-0.435,1.363 c-0.063,0-0.063,0.124-0.126,0.186L220.312,87.74c-0.246-1.427-0.433-2.79-0.619-4.155c-0.124-0.557-0.248-1.175-0.374-2.912 c-0.185-1.738-0.435-4.527-0.495-6.943c-0.061-2.48,0.061-4.651,0.249-6.322c0.125-1.739,0.309-2.978,0.559-4.155 c0.248-1.24,0.435-2.293,0.742-3.349c0.313-1.116,0.686-2.168,0.994-3.098c0.928-2.542,1.985-4.77,3.597-7.255 c1.362-1.856,2.787-3.592,4.833-5.393c1.241-1.176,2.603-2.104,3.967-2.973c0.743-0.496,1.552-0.929,2.418-1.363 c0.928-0.432,1.858-0.927,2.914-1.3c1.114-0.436,2.231-0.867,3.221-1.18c0.996-0.309,1.8-0.557,2.73-0.803 c0.929-0.25,1.981-0.559,3.286-0.869c1.363-0.312,3.036-0.683,4.647-1.118c-1.302,1.118-2.604,2.172-3.284,2.79 c-0.685,0.558-0.744,0.558-0.867,0.621c-0.123,0.124-0.372,0.37-0.496,0.495c-0.25,0.187-0.437,0.373-0.685,0.56 c-0.059,0.06-0.184,0.126-0.372,0.373c-0.307,0.246-0.74,0.618-1.114,1.051c-0.868,0.807-1.675,1.613-2.544,2.605 c-0.802,1.053-1.549,2.169-2.104,3.285c-0.312,0.494-0.499,0.992-0.622,1.238c-0.126,0.374-0.126,0.497-0.187,0.624 c-0.183,0.559-0.496,1.734-0.619,2.599c-0.06,0.187-0.06,0.375-0.06,0.625c0,0.246,0,0.555,0,0.743c0,0.431,0,0.495,0,0.866 c0,0.25,0.06,0.623,0.122,0.868c0,0.31,0.061,0.683,0.061,0.934c0,0.12,0.189,1.05,0.313,1.792 c0.122,0.498,0.183,0.995,0.243,1.303c0.126,0.681,0.249,0.994,0.312,1.427c0.124,0.743,0.312,1.49,0.374,2.416 c0.062,0.247,0.124,0.495,0.124,0.621c0,0.125,0,0.187,0,0.25c0,0,0.06,0.554,0.12,1.115c0.066,0.558,0.066,1.05,0.066,1.547 C241.696,66.168,241.576,66.726,241.391,67.346z" clip-rule="evenodd"/></g><g><path fill="#8ED8F8" fill-rule="evenodd" d="M280.627,152.144c0.993-0.309,2.169-0.679,3.161-1.052 c0.37-0.187,0.742-0.248,1.364-0.492c0.56-0.19,1.55-0.503,2.543-0.934c1.113-0.373,2.354-0.931,3.345-1.305 c0.93-0.372,1.675-0.619,2.356-0.989c0.746-0.25,1.489-0.562,1.923-0.743c0.37-0.126,0.433-0.19,0.557-0.25 c0.431-0.126,1.364-0.557,1.859-0.743c0.558-0.25,0.93-0.434,1.487-0.683c1.177-0.499,2.356-0.991,3.532-1.551 c0.623,0.748,1.18,1.427,1.737,2.17c0.246,0.31,0.434,0.616,1.053,1.364c0.561,0.806,1.364,1.983,2.111,3.036 c0.616,1.056,1.173,1.922,1.609,2.667c0.434,0.806,0.747,1.486,1.113,2.169c0.251,0.62,0.56,1.241,0.806,1.799 c0.621,1.799,0.995,3.162,1.117,4.772c0.187,2.356-0.372,4.713-2.354,6.881c-0.746,0.805-1.676,1.55-2.606,2.171 c-0.307,0.188-0.553,0.368-0.802,0.491c-0.622,0.376-0.809,0.497-1.243,0.686c-0.618,0.312-0.68,0.312-1.239,0.562 c-0.68,0.245-1.737,0.617-2.295,0.8c-0.121,0.066-0.246,0.066-0.681,0.189c-0.433,0.184-1.177,0.434-2.044,0.68 c-0.932,0.31-1.859,0.557-2.543,0.743c-1.239,0.312-1.732,0.433-2.479,0.684c-1.672,0.431-3.224,0.807-4.834,1.305 c-0.621,0.181-1.486,0.492-2.418,0.741c-0.372,0.187-0.744,0.249-0.929,0.309c-0.371,0.126-0.312,0.062-0.437,0.126 c-0.183,0.061-0.496,0.187-0.619,0.187c-0.122,0.061-0.684,0.308-0.868,0.308c-0.432,0.188-0.93,0.372-1.237,0.436 c-0.123,0.124-0.868,0.371-1.488,0.62c-0.744,0.311-1.737,0.742-2.853,1.363c-0.684,0.369-1.237,0.742-1.922,1.176 c-0.619,0.435-1.302,0.931-1.799,1.302c-0.927,0.807-1.609,1.427-2.355,2.293c-0.685,0.807-1.238,1.552-1.608,2.356 c-0.312,0.432-0.562,0.867-0.622,1.179c-0.31,0.558-0.246,0.494-0.37,0.68c-0.123,0.372-0.123,0.372-0.248,0.684 c-0.062,0.185-1.411,3.109-1.472,3.292l-2.001-2.611c-0.188-0.616-0.376-1.175-0.496-1.8c-0.373-1.359-0.682-3.408-0.619-5.202 c0-1.364,0.246-2.73,0.619-4.155c0.309-1.239,1.054-2.974,1.859-4.649c0.37-0.493,0.621-0.992,0.807-1.299 c0.374-0.498,0.374-0.561,0.556-0.867c0.251-0.311,0.311-0.374,0.498-0.684c0.31-0.372,0.867-0.994,1.363-1.612 c0.126-0.121,0.126-0.188,0.308-0.309c0.063-0.127,0.312-0.435,0.56-0.68c0.183-0.192,0.372-0.372,0.684-0.687 c0.31-0.372,0.744-0.805,1.301-1.424c0.495-0.499,1.055-1.053,1.484-1.486c0.439-0.434,0.685-0.623,0.872-0.869 c0.745-0.62,1.299-1.178,1.919-1.737c0.435-0.433,1.181-1.177,1.739-1.736c0.432-0.433,0.926-0.867,1.363-1.363 c0.06-0.061,0.247-0.307,0.307-0.37c0.064,0,0.25-0.248,0.374-0.372c0.125-0.187,0.624-0.931,0.746-1.301 c0.431-0.807-0.122-1.49-0.809-1.986c-0.185-0.184-0.869-0.557-1.114-0.682l-4.153-2.105L280.627,152.144z" clip-rule="evenodd"/></g><g><path fill="#ED1C24" d="M173.202,179.046c1.983-0.123,2.976-0.123,4.219-0.062c1.05,0.062,2.477,0.186,3.963,0.31l-2.043-6.88 h-18.72c0.247,1.178,0.432,2.354,0.561,3.531c0.308,2.851,0.43,5.889,0.43,9.053c0,2.353-0.058,4.708-0.122,6.69 c-0.065,1.985-0.124,3.532-0.25,5.022c-0.124,1.362-0.312,2.729-0.498,4.091c1.43-0.062,2.792-0.062,4.155-0.062 c0.743-0.062,1.55-0.062,2.477-0.062c0.932,0.062,1.985,0.062,3.165,0.124c2.415,0,5.207,0.187,8.056,0.436l2.234-6.82 l-10.105-0.558l0.31-4.153c0.373,0,0.806-0.06,1.3-0.06c0.932,0,1.679-0.062,2.357-0.062c0.373,0,0.867,0,1.424,0.062 c1.119,0,2.479,0.184,3.845,0.371l1.116-6.881l-0.56,0.063c-1.052,0.12-2.108,0.184-2.975,0.248 c-1.552,0.123-2.42,0.123-3.472,0.123c-1.116-0.063-2.293-0.188-3.531-0.251l0.185-4.092 C171.654,179.17,172.521,179.108,173.202,179.046z"/><path fill="#ED1C24" d="M151.198,174.833c-1.611-1.183-2.232-1.431-3.409-1.737c-0.559-0.188-1.305-0.313-1.984-0.313 c-0.374-0.058-0.805-0.058-1.177-0.058c-0.25-0.064-0.495-0.064-0.742-0.064c-1.49-0.062-3.411-0.062-5.208-0.062h-7.44 c0.185,1.736,0.374,3.409,0.434,5.023c0.247,3.161,0.371,5.827,0.371,8.676c0,1.363-0.06,2.789-0.124,4.34 c-0.123,3.1-0.369,6.633-0.742,10.165c0.742,0,1.423,0,2.045-0.062c0.747,0,1.427,0,1.923,0c1.24-0.062,1.488-0.062,2.354,0 c1.114,0,2.543,0,3.783,0c-0.497-2.479-0.622-4.895-0.56-7.437c0.93,0.062,1.921,0.187,2.853,0.187c0.312,0,0.62,0.061,1.054,0.061 c0.186,0,0.372,0,0.616,0c0.81,0,1.799-0.061,2.73-0.186c1.86-0.185,2.79-0.431,4.093-1.552c0.62-0.617,1.363-1.547,2.042-2.6 c0.684-1.117,1.243-2.356,1.615-3.599c0.372-1.24,0.62-2.478,0.62-3.471c0-1.921-0.992-3.348-2.605-5.082 C152.935,176.191,151.942,175.391,151.198,174.833z M147.54,184.5c-0.748,0.805-1.797,1.674-2.913,2.418l-0.123,0.062 c-1.179,0.681-2.543,1.3-4.03,1.675c0-3.968,0.125-8.12,0.497-12.214c1.363,0.561,2.603,1.181,3.656,1.735 c0.308,0.185,0.616,0.375,0.929,0.497c1.236,0.743,1.984,1.24,2.481,1.736c0.494,0.558,0.743,1.055,0.679,1.734 C148.594,182.764,148.218,183.572,147.54,184.5z"/><path fill="#ED1C24" d="M199.906,177.249c0.862-0.668,1.862-1.201,2.993-1.667l-8.117-4.321c-1.731,0.529-3.393,1.266-4.724,2.193 c-1.399,0.931-2.53,1.998-3.193,3.193c-1.397,2.331-1.531,4.658-0.331,6.72c0.463,0.934,1.194,1.931,1.659,2.596 c0.801,0.995,0.73,0.798,0.999,1.129c0.933,1.198,1.732,2.328,2.063,3.329c0.398,0.998,0.398,2.398-0.532,3.857 c-0.463,0.73-1.195,1.33-2.064,1.865c-0.931,0.531-1.995,0.865-3.057,0.995l0.063,0.536l8.783,4.718 c1.733-0.663,3.259-1.524,4.526-2.523c1.329-1.001,2.327-2.132,2.927-3.325c0.601-1.202,0.864-2.598,0.864-3.593 c0.135-1.935-0.263-2.93-0.996-4.259c-0.335-0.671-0.866-1.334-1.197-1.664c-0.269-0.466-0.4-0.533-0.535-0.666 c-0.13-0.134-0.265-0.265-0.664-0.798c-0.399-0.468-0.998-1.264-1.465-1.929c-0.864-1.462-0.864-2.863,0-4.326 C198.374,178.575,198.973,177.91,199.906,177.249z"/><path fill="#ED1C24" d="M96.029,192.808c-0.064-0.808-0.064-1.612-0.128-2.357c-0.06-0.68-0.06-1.364-0.121-1.984 c0-0.559-0.063-1.115-0.063-2.169c0.063-0.992,0.063-2.545,0.184-4.089c0.064-3.101,0.376-6.388,0.811-9.61 c-0.561,0-1.055,0-1.675,0c-0.556,0-1.177,0-1.983,0c-0.808,0-1.798,0-2.543,0c-1.426,0-2.292,0-3.347,0c-0.497,0-0.99,0-1.486,0 c0.181,2.105,0.309,4.217,0.496,6.261c0.121,1.984,0.247,3.969,0.247,5.889c0.06,1.923,0.123,3.719,0.123,5.146 c0,1.487,0,2.479-0.062,3.656c-0.06,2.173-0.122,4.71-0.307,7.189h19.525c0.372-3.097,1.056-6.262,2.043-9.358 c-2.602,0.557-5.203,0.931-7.805,1.179C98.632,192.683,97.329,192.745,96.029,192.808z"/><path fill="#ED1C24" d="M72.598,179.046c1.92-0.123,2.976-0.123,4.153-0.062c1.053,0.062,2.542,0.186,3.966,0.31l-1.984-6.88 H60.016c0.244,1.178,0.368,2.354,0.494,3.531c0.371,2.851,0.435,5.889,0.435,9.053c0,2.353,0,4.708-0.064,6.69 c-0.062,1.985-0.123,3.532-0.306,5.022c-0.064,1.362-0.314,2.729-0.499,4.091c1.489-0.062,2.852-0.062,4.213-0.062 c0.744-0.062,1.553-0.062,2.483-0.062c0.865,0.062,1.984,0.062,3.097,0.124c2.479,0,5.269,0.187,8.062,0.436l2.229-6.82 l-10.045-0.558l0.249-4.153c0.497,0,0.869-0.06,1.303-0.06c0.99,0,1.674-0.062,2.417-0.062c0.373,0,0.806,0,1.365,0.062 c1.174,0,2.481,0.184,3.843,0.371l1.112-6.881l-0.491,0.063c-1.055,0.12-2.11,0.184-2.979,0.248 c-1.549,0.123-2.418,0.123-3.536,0.123c-1.052-0.063-2.292-0.188-3.468-0.251l0.184-4.092 C70.982,179.17,71.852,179.108,72.598,179.046z"/><path fill="#ED1C24" d="M372.183,179.17c-1.178-2.23-3.037-3.966-5.459-5.02c-2.226-1.055-5.016-1.49-7.745-1.553 c-0.062,0-0.187,0-0.309,0c-2.853,0-5.642,0.498-7.935,1.553c-2.233,1.054-4.091,2.724-5.21,4.896 c-1.176,2.107-1.669,4.647-1.669,7.251c0,2.666,0.493,5.33,1.732,7.624c1.115,2.232,2.976,4.029,5.271,5.147 c2.294,1.179,5.083,1.671,7.872,1.671h0.247c2.729-0.062,5.455-0.492,7.745-1.547c2.296-1.119,4.221-2.854,5.397-5.023 c1.177-2.169,1.672-4.706,1.672-7.438C373.793,184.07,373.298,181.34,372.183,179.17z M366.229,185.865 c-0.122,0.866-0.257,2.223-0.812,3.277c-0.561,1.116-1.542,1.928-2.655,2.547c-1.054,0.685-2.296,0.934-3.595,0.994 c-0.062,0-0.127,0-0.188,0c-1.177-0.061-2.355-0.31-3.408-0.87c-1.179-0.559-2.172-1.362-2.726-2.35 c-0.686-0.936-0.932-2.051-0.997-2.979c0-2.469,1.343-7.068,7.069-7.068h0.062C364.312,179.417,366.229,183.352,366.229,185.865z"/><path fill="#ED1C24" d="M311.185,172.598c-3.528,0-7.127,0-10.72,0c0.121,2.543,0.311,5.083,0.371,7.191 c0.124,2.045,0.186,3.659,0.246,5.146c0.064,2.909,0.064,4.959,0,7.129c0,1.116,0,2.289-0.061,3.781 c-0.062,1.425-0.186,3.161-0.186,4.833c1.176,0,2.354,0,3.533,0c2.291-0.063,4.088,0,6.197,0c-0.247-2.418-0.434-4.833-0.554-7.251 c-0.064-1.177-0.128-2.357-0.128-3.78c0.063-1.49,0.063-3.286,0.186-5.146C310.257,180.783,310.63,176.69,311.185,172.598z"/><path fill="#ED1C24" d="M332.509,172.725c-2.662,0.058-4.522,0.058-6.631,0c-1.116,0-2.294-0.064-3.656-0.127 c-1.49,0-3.039-0.062-4.649-0.184c-0.746,2.91-1.116,5.762-0.992,8.613l7.621-0.557l-0.617,20.269h10.166l-0.743-20.083 l6.569,0.311c0.497-2.91,1.302-5.643,2.231-8.616c-1.671,0.063-3.285,0.186-4.896,0.247 C335.361,172.661,333.872,172.725,332.509,172.725z"/><path fill="#ED1C24" d="M245.915,172.415h-4.279c-1.362,3.285-2.787,6.444-4.213,9.667c-2.853,6.198-5.767,12.336-8.99,18.413 l10.045,0.372l1.922-5.396c0.616,0,1.363-0.061,1.917-0.061c1.427-0.063,2.543-0.063,3.599-0.063c0.805,0,1.55,0.063,2.418,0.063 c0.554,0,1.239,0.061,1.917,0.061l2.049,5.456l10.847-0.494l-14.753-28.019H245.915z M245.915,188.714l-3.164-0.248l3.164-5.763 l0.125-0.246l2.972,6.57L245.915,188.714z"/><path fill="#ED1C24" d="M294.016,180.041c-0.434-0.812-0.93-1.613-1.486-2.297c-0.56-0.682-1.18-1.362-1.798-1.923 c-1.429,0-2.587,0.976-4.385,1.409c-1.304,0.313-2.729,1.068-4.217,1.561c-0.742,0.312-1.575,0.552-2.258,0.863 c-2.233,0.866-3.615,1.961-5.411,3.386c-1.924,1.487-3.888,5.285-4.882,6.773c-0.93,1.549-0.333,1.22-1.365,1.712 c-0.062,1.486-0.294,2.025-0.294,3.762c-0.063,1.675-0.124,3.533-0.251,5.453h12.896c0.37,0,0.805,0,1.177,0 c1.117-0.062,2.169-0.125,3.16-0.307c2.479-0.499,4.157-1.364,6.076-3.163c0.868-0.931,1.86-2.049,2.604-3.222 c0.805-1.181,1.487-2.421,1.859-3.658c0.375-1.241,0.622-2.482,0.622-3.41c0-1.922-0.436-3.036-0.994-4.586 C294.822,181.587,294.45,180.783,294.016,180.041z M286.265,188.963c-0.492,0.743-1.235,1.611-2.106,2.354 c-0.805,0.683-1.733,1.305-2.416,1.739l-0.059,0.06c-0.685,0.434-1.183,0.62-1.613,0.743c-0.435,0.188-0.867,0.247-1.304,0.37 c-0.745,0.123-1.55,0.123-1.798,0.123c-0.122,0-0.248,0-0.493-0.059c0-0.991-0.064-1.982-0.064-2.791 c-0.062-0.866-0.062-1.549-0.125-2.104c0-1.242,0-2.359,0-3.968c0.062-0.809,0.062-1.679,0.125-2.479 c0.064-0.808,0.188-1.611,0.31-2.355c0.746-0.435,1.553-0.619,2.355-0.556c0.869,0.121,1.796,0.431,2.666,0.927 c0.619,0.432,1.239,0.867,1.859,1.363c1.428,1.178,2.418,2.54,3.039,3.534C287.319,186.794,287.446,187.475,286.265,188.963z"/><path fill="#ED1C24" d="M220.934,181.028c1.423-0.741,3.163-1.423,5.019-1.981l-4.65-7.066c-2.971,0.928-5.826,2.292-8.12,3.781 c-2.289,1.489-4.086,3.285-5.328,5.145c-1.242,1.858-1.799,3.965-1.799,6.013c0,2.045,0.618,4.093,1.922,5.89 c1.301,1.794,3.224,3.472,5.642,4.835c2.417,1.485,5.392,2.727,8.428,3.529l3.598-7.312c-1.799-0.495-3.411-1.115-4.837-1.859 c-2.912-1.61-4.152-3.597-4.152-5.577c0-1.054,0.309-2.049,1.055-2.915C218.456,182.582,219.446,181.773,220.934,181.028z"/></g><g><path fill="#2E3192" d="M317.139,86.747c0.804-0.744,1.487-1.486,2.044-2.17c1.488-1.733,2.417-3.347,3.226-4.897 c1.918-4.402,2.478-9.05-0.991-13.639c-3.475-3.839-7.132-4.15-10.601-3.594c-1.861,0.312-3.721,0.994-5.52,1.984 c-2.23,1.303-4.461,3.163-6.695,5.766c-0.745,0.804-1.423,1.676-2.169,2.73c-0.743,1.053-1.547,2.228-2.29,3.471l-0.249,0.371 c-0.685,1.175-1.364,2.417-1.924,3.657c-0.866-0.372-2.106-0.932-3.097-1.24c-0.434-0.186-0.869-0.31-1.304-0.497l-0.867,2.666 c2.357,0.745,4.774,1.734,7.191,3.347c1.858,1.177,3.716,2.667,5.516,4.585c0.683,0.742,1.427,1.548,2.17,2.544 c0.741,1.054,1.487,2.169,2.048,3.1c0.742,1.175,1.236,2.042,1.67,2.914c0.186,0.372,0.372,0.741,0.621,1.175l2.478-1.24 c-0.184-0.372-0.684-1.24-1.114-2.169c-0.309-0.555-0.556-1.053-0.868-1.551c0.747-0.369,1.489-0.739,2.231-1.115 c0.682-0.431,1.426-0.869,2.354-1.486c0.993-0.624,2.295-1.489,3.351-2.293C315.466,88.297,316.333,87.552,317.139,86.747z M305.855,91.832l-0.559-0.495l-7.251-6.511c-1.363-1.115-2.727-1.982-4.152-2.726c-0.063-0.063-0.188-0.063-0.248-0.126 c0.06-0.183,0.185-0.372,0.248-0.557c1.548-3.16,3.409-6.197,5.329-8.616c2.044-2.539,4.029-4.464,6.074-5.825 c1.984-1.306,3.905-2.048,5.888-2.42c1.984-0.371,4.091-0.124,5.769,0.681c0.803,0.434,1.549,0.932,2.229,1.613 c0.681,0.619,1.178,1.367,1.613,2.23c0.431,0.808,0.68,1.738,0.804,2.73c0.188,0.99,0.126,1.983,0,3.038 c0,0.308-0.061,0.741-0.618,2.104c-0.562,1.364-1.737,3.722-3.226,5.643c-1.486,1.982-3.406,3.531-5.517,5.083 C310.257,89.102,308.086,90.527,305.855,91.832z"/><path fill="#2E3192" d="M402.869,178.12c-0.62-2.047-1.554-4.158-2.852-6.139c-0.686-0.992-1.367-1.924-2.111-2.789 c-0.806-0.868-1.607-1.735-2.478-2.479c-0.867-0.683-1.859-1.426-2.793-1.987c-1.92-1.236-4.088-2.168-6.194-2.726 c-1.119-0.312-2.11-0.495-2.915-0.619c-1.551-0.124-2.231-0.124-3.287-0.184h-66.76c0-0.064,0-0.126,0-0.126 c0-0.063-0.125-0.745-0.186-1.301c-0.125-0.867-0.371-1.737-0.681-2.728c-0.252-0.497-0.434-1.054-0.808-1.862 c-0.246-0.741-0.743-1.609-1.3-2.666c-0.558-1.049-1.24-2.168-1.677-2.848c-0.372-0.56-0.434-0.687-0.557-0.746 c-0.245-0.494-0.74-1.178-1.177-1.797c-0.187-0.186-0.37-0.494-0.621-0.87c-0.308-0.371-0.619-0.805-0.868-1.11 c-0.124-0.189-0.247-0.313-0.31-0.438c-0.247-0.308-0.371-0.555-0.618-0.809l-0.499-0.62c0.374-0.184,0.746-0.371,1.117-0.551 c5.952-2.98,11.901-6.326,17.791-9.984c3.224-2.169,6.446-4.402,9.114-6.445c2.729-2.046,4.96-3.904,7.062-5.829 c2.047-1.861,4.033-3.779,5.642-5.515c3.286-3.474,5.15-5.829,7.068-8.62c0.928-1.421,1.858-2.974,2.663-4.398 c1.492-2.668,2.544-5.024,3.348-7.377c2.05-6.195,2.48-12.211,1.12-18.348c-0.127-0.557-0.188-0.87-0.313-1.301 c0-0.123-0.061-0.248-0.247-0.868c-0.374-1.24-1.363-3.902-2.415-6.014c-1.181-2.292-2.545-4.399-4.341-6.692 c-0.93-1.179-1.92-2.417-3.101-3.719c-1.239-1.301-2.726-2.729-4.462-4.279c-1.675-1.484-3.722-3.162-5.763-4.649 c0.123-0.247,0.185-0.62,0.369-0.991c0-0.064,0.123-0.434,0.25-0.745c0.059-0.247,0.122-0.494,0.244-0.99 c0.249-0.93,0.623-2.417,0.685-3.534c0.618-4.713-0.188-9.422-3.844-13.824c-0.619-0.804-1.236-1.489-1.796-2.045 c-0.311-0.25-0.622-0.558-1.117-0.93c-0.495-0.434-1.053-0.867-1.672-1.302c-0.685-0.494-1.368-0.928-1.8-1.179 c-0.435-0.309-0.62-0.371-0.746-0.497c-0.556-0.308-1.179-0.68-1.549-0.802c-0.309-0.186-1.239-0.684-1.983-0.99 c-0.743-0.374-4.893-2.363-9.968-3.354c0.739,0.867,5.134,6.577,5.504,7.07c0.376,0.495,0.685,0.932,1.059,1.486 c0.738,1.055,1.546,2.417,2.102,3.471c0.996,1.925,1.677,3.845,1.923,5.766c0.065,0.808,0.065,1.611,0,2.543 c0,0.494-0.062,0.87-0.122,1.057c-0.06,0.557-0.06,0.432-0.06,0.619c-0.064,0.249-0.189,0.679-0.25,0.989 c0,0.187-0.188,0.745-0.371,1.365c-0.124,0.371-0.189,0.744-0.373,1.115c-0.122-0.679-0.31-1.363-0.493-1.92 c-0.313-1.177-0.81-2.604-1.489-4.156c-0.31-0.742-0.682-1.487-1.056-2.105c-0.621-1.24-1.301-2.296-2.168-3.347 c-0.372-0.495-0.742-0.992-1.116-1.361c-1.921-1.985-3.286-2.913-5.084-3.845c-1.923-0.931-3.779-1.553-5.64-1.924 c-0.742-0.123-1.489-0.246-2.296-0.308h-0.31c-0.743-0.064-1.547-0.064-1.919-0.064c-0.562,0-0.623,0-0.683,0 c-0.619,0-3.908,0.222-4.153,0.249c-3.21,0.358-7.48,1.289-9.842,2.984c1.054,0.244,4.882,0.922,5.193,0.982 c0.493,0.062,4.83,0.928,5.329,1.115c1.177,0.247,2.727,0.811,4.155,1.552c0.68,0.312,1.301,0.743,1.919,1.115 c0.186,0.125,0.31,0.247,0.492,0.372c0.316,0.31,0.686,0.497,0.871,0.682c0.312,0.249,0.312,0.249,0.436,0.371 c-0.307-0.058-11.173-4.824-24.114,0.993c-0.122,0.124-0.308,0.184-0.431,0.25c-0.809,0.37-1.615,0.802-2.545,1.3 c-1.176,0.621-2.479,1.424-3.223,1.861c-0.805,0.495-0.991,0.617-1.24,0.744c-0.991,0.622-1.982,1.363-3.286,2.168 c-0.867,0.558-1.486,0.992-2.418,1.736c-0.059,0-0.122,0-0.306,0.186c-0.187,0.123-0.497,0.371-0.934,0.681 c-0.867,0.682-2.167,1.676-3.407,2.667c-0.62,0.497-1.181,0.99-1.487,1.237c-0.372,0.309-0.497,0.434-0.618,0.558 c-0.315,0.251-0.932,0.748-1.613,1.366c-1.364,1.179-2.604,2.232-3.781,3.288c-0.616,0.617-1.366,1.239-2.17,1.983 c-1.177,0.987-2.105,1.982-3.039,2.726c-0.247,0.247-0.493,0.434-0.68,0.684c-0.497,0.495-1.241,1.235-2.107,1.983 c-0.437,0.493-0.867,0.868-1.239,1.238c-0.374,0.372-0.561,0.555-0.809,0.804c-0.245,0.186-0.496,0.434-0.929,0.81 c-0.434,0.43-0.994,1.052-1.611,1.608c-0.621,0.624-1.239,1.176-1.549,1.488c-0.683,0.618-0.56,0.557-0.809,0.744 c0.126-0.437,0.188-1.241,0.188-1.676c0-0.247,0-0.742-0.062-1.05c0-0.063-0.061-0.373-0.061-0.685 c-0.065-0.371-0.126-1.425-0.312-2.414c-0.124-1.055-0.37-1.925-0.491-2.666c-0.25-1.057-0.377-1.861-0.498-2.607 c-0.062-0.433-0.124-0.803-0.188-1.176c-0.062-0.618-0.185-1.921-0.125-2.975c0-0.188,0.062-0.373,0.062-0.496 c0.062-0.312,0.062-0.312,0.126-0.495c0-0.189,0.186-0.932,0.433-1.61c0.369-1.303,0.993-2.357,1.795-3.597 c0.312-0.436,0.744-0.871,0.934-1.179c0.435-0.558,0.557-0.679,0.928-1.052s1.004-1.041,1.301-1.366 c3.271-3.577,7.312-7.355,7.312-7.355c-4.322-0.051-7.747,0.91-8.053,0.971c-0.501,0.124-1.428,0.31-1.861,0.496 c-0.125,0-0.496,0.125-0.932,0.249c-0.496,0.187-1.424,0.496-2.417,0.805c-1.175,0.373-2.79,1.058-4.461,1.798 c-0.806,0.371-1.49,0.808-2.233,1.178l-0.184,0.125c-0.806,0.437-1.553,0.992-2.296,1.426c-1.923,1.364-3.596,2.85-5.33,4.835 c-1.176,1.302-2.17,2.602-2.974,3.905c-0.437,0.743-0.809,1.424-1.243,2.295c-0.434,0.866-0.868,1.859-1.3,2.911 c-0.497,1.054-0.929,2.23-1.239,3.409c-0.745,2.479-1.238,5.146-1.609,7.871c-0.127,1.365-0.249,2.728-0.249,4.466 c-0.064,1.671,0,3.656,0,4.771c0.057,1.116,0.057,1.363,0.057,1.552c0.064,0.556,0.128,1.236,0.191,2.045 c0.059,0.435,0.059,0.869,0.124,1.117c0.062,0.559,0.062,0.559,0.062,0.74c0.058,0.623,0.122,1.368,0.245,2.113 c0,0.18,0.064,0.615,0.123,1.049c0.189,0.931,0.371,2.357,0.621,3.72c-0.432,0.248-0.989,0.747-1.423,1.117 c-0.188,0.187-0.435,0.436-0.746,0.62l-0.186,0.124c-0.123,0.123-0.312,0.311-0.621,0.561c-0.494,0.367-1.177,0.928-1.798,1.426 c-0.618,0.494-1.117,0.867-1.548,1.173c-0.372,0.312-0.744,0.558-0.991,0.807c-0.371,0.249-0.619,0.435-1.738,1.304 c-1.177,0.868-3.161,2.291-5.205,3.716c-2.045,1.425-4.28,2.852-6.385,4.094c-2.046,1.24-3.967,2.293-5.519,3.159 c-1.61,0.869-2.786,1.489-5.205,2.48c-2.418,0.993-5.954,2.355-9.3,3.532c-6.446,2.359-12.023,3.722-17.789,4.714 c-2.917,0.556-5.766,0.929-8.805,1.237c-3.035,0.311-6.321,0.497-10.039,0.497c-3.722,0-7.871-0.186-10.167-0.313 c-2.293-0.057-2.604-0.122-2.974-0.184c-0.559-0.06-1.116-0.06-1.611-0.123c-0.314,0-0.682-0.064-0.931-0.124 c-0.25,0-0.933-0.062-1.611-0.189c-0.684,0-1.303-0.12-1.924-0.182c-0.246,0-0.494,0-0.617-0.063c-0.497,0-0.559,0-0.809,0 c-0.123,0-0.497-0.122-0.928-0.185c-1.056-0.122-2.73-0.433-3.967-1.055c-1.055-0.431-2.107-0.992-2.974-1.671 c-0.561-0.374-1.302-0.994-1.862-1.616c-0.992-2.847-0.928-5.764,0.372-8.491c0.375-0.745,0.807-1.488,1.245-2.167 c0.552-0.745,1.484-1.988,2.785-3.038c2.491-2.537,9.629-6.989,9.629-6.989c-5.347-1.201-11.862-0.388-12.414-0.264 c-0.562,0.063-1.493,0.245-2.36,0.434c-1.611,0.373-3.164,0.805-4.585,1.426c-0.62,0.246-1.242,0.557-1.863,0.866 c-1.794,0.871-2.974,1.672-4.584,3.039c-0.992,0.931-2.106,2.105-3.038,3.346c-0.992,1.365-1.675,2.603-2.295,3.906 c-0.372,0.742-0.681,1.485-0.929,2.355c-0.372,0.867-0.622,1.797-0.872,2.791c-0.308,1.056-0.495,2.231-0.742,3.595 c-0.185,1.238-0.37,2.665-0.497,4.091c-0.741,0.928-1.55,1.86-2.23,2.789c-2.042,2.789-3.347,5.084-4.277,7.75 c-1.735,4.77-1.735,8.678-0.99,13.019c0.308,1.362,0.745,2.973,1.363,4.523c0.373,0.805,0.621,1.549,0.871,1.983 c0.244,0.497,0.37,0.743,0.492,1.056c0.188,0.309,0.375,0.679,0.5,0.868c0.247,0.431,0.308,0.558,0.434,0.804 c0.186,0.311,3.595,4.647,5.981,6.63c-0.125-1.175-0.217-8.364-0.217-9.11c0-1.238,0.062-3.285,0.372-5.021 c0.497-2.229,1.097-4.608,3.348-6.755c7.359-7.019,22.562-2.481,22.749-2.417c7.377,2.603,14.877,5.08,23.12,7.624 c8.369,2.476,17.542,5.018,22.627,6.448c5.022,1.362,6.011,1.608,7.003,1.858c0.993,0.31,1.983,0.557,2.792,0.743 c0.803,0.188,1.361,0.374,1.922,0.496c1.236,0.311,2.725,0.683,4.336,1.051c0.931,0.249,1.798,0.435,2.482,0.623 c0.617,0.124,0.992,0.186,1.424,0.371c1.116,0.191,2.043,0.435,2.912,0.622c0.746,0.186,1.922,0.493,2.789,0.742 c0.56,0.063,0.935,0.186,1.366,0.251c0.37,0.124,1.178,0.309,2.045,0.496c0.869,0.185,1.676,0.367,2.417,0.495 c0.558,0.121,1.056,0.246,1.427,0.371c0.373,0,0.991,0.184,1.734,0.308c0.372,0.062,0.745,0.124,1.366,0.249 c0.496,0.125,1.236,0.247,1.917,0.371c0.809,0.19,1.49,0.311,1.986,0.433c0.558,0.064,0.805,0.128,1.056,0.188 c0.493,0.063,0.929,0.189,1.239,0.189c0.123,0.058,0.25,0.058,0.681,0.121c0.371,0.063,0.93,0.186,1.546,0.249 c1.242,0.247,2.545,0.431,3.968,0.617c0.746,0.189,1.426,0.25,2.544,0.37c0.122,0.065,0.249,0.065,0.372,0.065 c0.989,0.188,2.293,0.372,3.473,0.497c1.3,0.124,2.478,0.248,3.531,0.37c2.047,0.127,3.72,0.247,5.396,0.31 c1.051,0.124,2.106,0.248,3.161,0.374c0.557,0.06,1.116,0.12,1.796,0.12c0.617,0.063,1.304,0.063,2.17,0.063 c1.922,0.062,4.65,0.062,7.625-0.124c2.976-0.186,6.319-0.616,8.739-0.928c2.417-0.372,3.966-0.683,5.579-0.993 c1.674-0.312,3.407-0.742,4.712-1.055c1.362-0.247,2.294-0.494,3.161-0.741c1.734-0.497,3.473-0.87,4.961-1.304 c0.743-0.187,1.49-0.372,2.107-0.559c0.556-0.185,0.99-0.308,1.238-0.371c0.494-0.125,0.681-0.183,0.991-0.248 c1.549,0.806,3.1,1.611,4.65,2.419c0.371,0.247,0.616,0.369,0.988,0.746c0.064,0.245-0.06,0.37-0.187,0.617 c-0.061,0.063-0.371,0.62-0.742,0.993c-0.124,0.185-0.494,0.558-0.866,0.927c-0.188,0.251-0.561,0.62-0.867,0.934H53.256 c-5.016,0.06-10.229,1.36-15.556,5.823c-0.81,0.806-1.678,1.616-2.419,2.48c-0.684,0.932-1.427,1.858-2.049,2.79 c-1.173,1.985-2.168,4.152-2.789,6.322c-0.248,1.117-0.435,2.171-0.557,2.977c-0.187,1.548-0.187,2.229-0.246,3.343 c0.059,3.659-0.185,7.381,0.99,11.161c0.619,2.048,1.551,4.155,2.852,6.197c0.617,0.933,1.3,1.863,2.107,2.727 c0.741,0.868,1.551,1.676,2.477,2.485c0.872,0.741,1.8,1.36,2.791,1.979c1.923,1.24,4.094,2.171,6.201,2.73 c1.049,0.309,2.104,0.556,2.913,0.618c1.485,0.249,2.229,0.249,3.284,0.249h229.294h11.343h11.403h74.942 c5.022-0.062,10.229-1.364,15.499-5.89c0.867-0.747,1.734-1.613,2.415-2.477c0.749-0.933,1.491-1.863,2.108-2.795 c1.176-1.978,2.109-4.149,2.729-6.322c0.311-1.053,0.494-2.167,0.617-2.974c0.188-1.55,0.188-2.229,0.251-3.348 C403.796,185.62,404.046,181.896,402.869,178.12z M220.312,67.099c0.125-1.548,0.374-2.915,0.557-4.157 c0.25-1.299,0.624-2.476,0.932-3.591c0.309-1.053,0.619-2.17,0.992-3.1c0.373-0.929,0.744-1.858,1.177-2.665 c1.18-2.357,2.853-4.833,4.899-7.004c1.36-1.424,2.725-2.48,4.277-3.598c0.31-0.184,0.617-0.431,0.989-0.616 c0.558-0.376,1.116-0.685,1.732-0.997c0.932-0.557,1.987-1.05,3.105-1.484c1.113-0.495,2.291-0.99,3.843-1.49 c1.546-0.495,3.529-1.053,5.517-1.488c-0.437,0.313-0.497,0.435-1.243,1.056c-0.246,0.187-0.554,0.495-1.05,0.932 c-0.501,0.495-1.243,1.176-1.861,1.795c-0.619,0.623-1.115,1.178-1.55,1.736c-1.177,1.548-2.046,2.916-2.666,4.337 c-0.496,1.18-0.93,2.916-0.989,3.536c-0.125,0.555-0.125,0.928-0.125,1.551c0,0.494,0,0.925,0,1.175 c0,0.433,0.061,0.805,0.185,1.426c0,0.188,0,0.311,0.062,0.808c0.063,0.494,0.125,1.237,0.311,1.981 c0.124,0.747,0.31,1.488,0.434,2.045c0.123,0.558,0.188,0.869,0.247,1.304c0.123,0.68,0.246,1.423,0.312,1.797 c0.06,0.62,0.846,3.709-0.705,7.499c-1.859,1.735-3.635,3.42-5.559,5.157c-4.402,3.966-8.593,7.501-12.929,11.532 c-0.373-2.542-0.833-6.273-0.954-8.507c-0.186-2.292-0.249-4.274-0.249-6.074C220.066,70.197,220.126,68.524,220.312,67.099z M264.758,154.809c-4.027,1.055-4.338,1.18-4.708,1.18c-0.561,0.184-1.056,0.248-1.551,0.37c-1.802,0.374-3.287,0.558-4.96,0.931 c-0.311,0.06-0.372,0.06-0.932,0.124c-0.371,0.063-0.929,0.123-1.548,0.187c-0.56,0.126-1.117,0.184-2.727,0.371 c-1.613,0.125-4.217,0.436-6.697,0.556c-2.477,0.063-4.897,0-6.135-0.06c-0.808-0.061-1.182-0.061-1.365-0.061 c-0.123,0-0.251,0-0.31,0c-0.246,0-0.493-0.063-0.68-0.063c-0.311,0-0.682,0-1.181-0.062c-0.31-0.064-0.557-0.064-0.743-0.121 c-0.31-0.064-0.62-0.064-0.993-0.064c-0.308-0.063-0.555-0.125-0.805-0.125c-1.921-0.061-4.275-0.245-6.135-0.435 c-0.87-0.06-1.549-0.123-2.231-0.188c-0.686-0.122-1.365-0.186-1.861-0.242c-0.494-0.064-0.742-0.127-0.993-0.127 c-0.436-0.063-0.928-0.123-1.425-0.188c-0.25,0-0.435-0.06-0.684-0.06c-0.806-0.188-1.546-0.249-2.104-0.374 c-0.372,0-0.809-0.062-0.992-0.122c-0.187,0-0.373-0.064-0.559-0.064c-0.805-0.184-1.613-0.309-2.729-0.493 c-0.683-0.127-1.302-0.189-1.734-0.312c-0.371,0-0.748-0.123-1.179-0.187c-0.682-0.122-1.239-0.185-2.168-0.371 c-0.375-0.125-0.809-0.248-1.304-0.308c-0.494-0.126-0.928-0.188-4.029-0.807c-2.973-0.684-8.615-1.859-13.946-3.037 c-5.205-1.241-10.102-2.542-13.142-3.349c-2.974-0.805-4.09-1.119-5.269-1.426c-3.533-0.989-7.314-2.106-10.783-3.035 c-2.299-0.682-4.777-1.427-6.822-2.048c-0.93-0.31-1.735-0.497-2.478-0.744c-1.366-0.372-2.666-0.744-3.656-1.052 c-0.436-0.126-0.934-0.311-1.485-0.498c-0.622-0.185-1.305-0.37-2.049-0.555c-1.365-0.499-2.666-0.868-3.846-1.244 c-2.602-0.868-5.203-1.735-7.934-2.66c-2.478-0.81-5.144-1.738-7.562-2.543c-13.502-3.662-20.268-0.061-21.757,0.678 c-0.988,0.502-1.797,0.996-2.975,1.986c-1.797,1.672-2.726,3.473-3.349,5.024c-0.619,1.672-0.99,3.221-1.177,5.082 c-0.124,0.681-0.183,1.486-0.183,2.416c0,0.867,0,1.797,0,2.542c0,0.681,0.059,1.053,0.059,1.427 c0.063,0.371,0.063,0.742,0.124,1.115c-0.183-0.249-0.369-0.496-0.494-0.744c-0.125-0.185-0.125-0.185-0.37-0.559 c-0.126-0.187-0.315-0.559-0.56-0.993c-0.25-0.433-0.559-0.991-0.93-1.608c-0.31-0.683-0.682-1.43-0.991-2.17 c-0.868-2.108-1.429-4.032-1.737-6.138c-0.494-3.722-0.309-6.877,1.177-10.848c0.438-1.177,1.118-2.542,1.613-3.473 c0.247-0.434,0.434-0.68,0.618-0.99c0.31-0.557,0.744-1.117,0.81-1.239c0.245-0.371,0.682-0.994,1.175-1.612 c0.248-0.31,0.497-0.685,0.557-0.744c0.123-0.187,0.249-0.25,0.373-0.437c0.56-0.74,1.24-1.24,1.365-1.856 c0.124-2.603,0.558-5.456,1.119-7.561c0.245-1.058,0.492-1.737,0.74-2.483c0.434-1.36,0.995-2.604,1.612-3.781 c0.557-1.052,1.239-1.984,1.981-2.913c0.934-1.177,2.42-2.539,3.474-3.285c0.621-0.433,0.681-0.558,1.734-1.114 c0.437-0.25,0.992-0.559,1.675-0.868c0.682-0.374,1.426-0.619,2.23-0.928c1.613-0.622,3.722-1.056,4.84-1.242 c0.552-0.064,0.738-0.064,1.048-0.126c0.247-0.06,0.618-0.06,0.993-0.06c0.435-0.063,0.932-0.125,1.363-0.188 c0.62,0,0.992-0.062,1.426-0.062c0.561-0.06,1.177-0.121,1.735-0.121c-1.922,0.99-3.965,2.415-5.644,3.903 c-1.484,1.361-2.54,2.663-3.344,4.027c-1.984,3.226-2.542,6.076-2.106,9.299c0.183,0.806,0.37,1.674,0.37,1.796 c0.124,0.372,0.124,0.313,0.308,0.932c0.063,0.185,0.127,0.372,0.249,0.622c1.115,1.053,2.169,1.922,3.162,2.603 c1.674,1.115,3.843,1.919,4.895,2.227c0.375,0.065,0.561,0.13,0.745,0.13c0.743,0.182,1.242,0.308,1.985,0.37 c0.994,0.127,1.488,0.187,2.295,0.249c5.144,0.557,10.288,0.988,15.25,1.051c4.708,0.065,9.171-0.063,13.387-0.435 c4.154-0.308,7.995-0.927,11.84-1.672c3.779-0.745,7.624-1.674,11.716-2.974c4.087-1.242,8.493-2.853,12.148-4.342 c3.595-1.484,6.506-2.848,9.731-4.71c3.285-1.92,7.005-4.277,8.991-5.577c2.045-1.366,2.416-1.613,2.788-1.922 c0.436-0.312,0.806-0.56,2.175-1.611c1.359-0.993,3.712-2.79,6.194-4.711c2.418-1.984,4.961-4.092,6.88-5.763 c1.986-1.676,3.347-2.917,5.023-4.405c1.735-1.487,3.781-3.284,4.957-4.401c0.186-0.125,0.372-0.308,0.495-0.431 c0.867-0.745,1.18-1.055,1.551-1.367c0.619-0.555,1.301-1.179,1.672-1.549c0.311-0.309,0.745-0.741,1.241-1.176 c0.621-0.558,1.116-0.993,1.8-1.675c0.431-0.435,0.616-0.558,1.297-1.241c0.373-0.431,0.933-0.927,1.488-1.485 c0.559-0.56,1.178-1.118,1.553-1.55c0.494-0.434,0.802-0.681,1.054-0.993c1.053-0.99,2.479-2.418,3.221-3.036 c0.248-0.25,0.312-0.372,0.434-0.434c0.373-0.372,0.747-0.742,1.055-1.117c0.496,2.293,1.12,4.653,1.674,6.818 c0.619,2.171,1.302,4.156,1.986,6.076c0.619,1.86,1.362,3.655,1.982,5.147c0.68,1.488,1.239,2.601,1.921,3.717 c0.618,1.179,1.298,2.234,2.17,3.532c0.992,1.367,2.167,2.913,3.349,4.343c1.176,1.486,2.354,2.726,3.348,3.779 c1.053,1.053,1.857,1.797,2.727,2.481c0.805,0.74,1.673,1.362,2.727,2.105c1.113,0.747,2.354,1.55,3.72,2.292 c1.364,0.807,2.851,1.553,4.276,2.234c0.744,0.31,1.427,0.619,2.172,0.927c0.678,0.249,1.423,0.497,2.106,0.745 c3.038,1.055,6.135,1.798,9.236,2.294c1.486,0.185,2.976,0.372,4.399,0.496c2.356,0.121,4.65,0.121,7.004,0 c2.108-0.185,4.217-0.435,6.322-0.869c0,0.312,0,0.932-0.06,1.363c-0.124,0.995-0.561,2.047-0.93,3.101 c-0.185,0.434-0.497,1.178-0.745,1.673l1.612,0.437c0.495-0.743,0.864-1.611,1.239-2.666c0.187-0.558,0.372-1.182,0.495-1.738 c0.372-1.549,0.498-2.785,0.372-4.959c-0.062-0.742-0.184-1.61-0.249-2.23c-0.123-0.68-0.186-0.991-0.246-1.362 c-0.122-0.374-0.186-0.74-0.309-1.056l-1.551,0.25c0.187,0.99,0.37,1.858,0.434,2.974c0.123,0.805,0.062,1.425,0.062,2.168 c-0.309,0-0.682,0.063-1.052,0.125c-0.436,0.061-0.744,0.061-1.427,0.061c-0.372,0-0.93,0.062-1.609,0.062 c-0.747,0.064-1.551,0.125-2.236,0.125h-0.123c-1.239,0.06-1.795,0.06-3.718,0.06c-0.93,0-2.111,0-3.349-0.121 c-1.299-0.126-2.666-0.313-4.337-0.5c-1.677-0.308-3.599-0.617-5.208-0.988c-1.732-0.372-3.1-0.748-4.217-1.179 c-0.743-0.187-1.362-0.373-1.918-0.62c-0.312-0.123-0.685-0.248-0.931-0.373c-1.8-0.742-3.474-1.608-5.704-3.102 c-1.116-0.678-2.355-1.547-3.533-2.539c-1.24-0.991-2.418-1.984-3.533-2.975c-2.049-1.983-3.595-3.718-5.392-6.2 c-0.872-1.238-1.859-2.787-2.668-4.089c-1.429-2.418-2.356-4.404-3.714-7.937c-0.687-1.735-1.367-3.721-1.989-5.578 c-0.619-1.861-1.114-3.471-1.548-5.147c-0.372-1.609-0.746-3.22-1.177-4.957c1.177-1.054,2.354-2.168,3.78-3.474 c0.555-0.495,1.114-0.993,1.425-1.298c0.309-0.314,0.496-0.434,0.619-0.497c0.312-0.312,0.683-0.684,1.115-1.053 c1.118-0.932,2.297-1.983,3.099-2.726c0.436-0.378,0.933-0.81,1.49-1.244c1.302-1.052,2.603-2.23,3.966-3.285 c0.496-0.372,1.115-0.929,1.363-1.111c0.066,0,0.188-0.063,0.313-0.187c0.123-0.125,0.373-0.312,0.68-0.561 c0.372-0.25,0.806-0.56,1.549-1.115c0.812-0.497,1.924-1.303,3.097-2.109c1.244-0.807,2.481-1.612,3.288-2.107 c0.807-0.43,1.117-0.621,1.489-0.803c0.31-0.187,0.62-0.437,1.051-0.687c0.499-0.245,1.119-0.553,1.675-0.866l0.189-0.062 c14.911-7.986,28.818-0.373,29.132,2.914c0.679,1.861,0.87,3.595,0.806,5.52c0,0.556-0.062,1.175-0.127,1.733 c0,1.056-0.308,2.417-0.495,3.221c-0.061,0.311-0.061,0.371-0.122,0.499c-0.125,0.496-0.309,0.993-0.433,1.423l1.548,0.435 c0.62-1.673,1.057-3.347,1.303-4.833c0.188-1.367,0.31-2.603,0.247-3.847c0-1.175-0.124-2.478-0.371-3.533 c-0.559-2.727-1.984-5.765-4.586-8.43c-1.366-1.365-2.663-2.29-3.97-3.1l-0.186-0.125c-2.354-1.3-4.521-2.045-7.004-2.537 c2.106-0.25,4.276-0.373,6.076-0.25c0.31,0,0.619,0,0.928,0c0.492,0.061,0.932,0.121,1.363,0.185 c1.676,0.188,3.353,0.684,5.146,1.488c1.736,0.865,3.287,1.736,5.021,3.595c0.436,0.435,0.869,0.928,1.239,1.428 c0.377,0.555,0.745,1.053,1.117,1.734c0.434,0.618,0.866,1.363,1.178,2.105c0.371,0.748,0.681,1.488,0.866,1.924 c0.19,0.438,0.249,0.684,0.312,0.932c0.371,1.114,0.683,1.857,0.869,2.663c0.061,0.432,0.185,0.929,0.371,1.548 c0.187,0.931,0.431,1.922,0.556,2.542c0.063,0.372,0.124,0.808,0.188,1.179c0.062,0.371,0.062,0.621,0.123,0.932l1.486,0.247 c0.682-1.427,1.363-3.284,1.734-4.28c0.25-0.494,0.25-0.679,0.313-0.805c0.309-0.806,0.496-1.485,0.679-2.232 c0.064-0.308,0.19-0.494,0.252-1.053c0.125-0.247,0.186-0.74,0.248-1.234c0.25-1.49,0.25-3.04,0.062-4.282 c-0.124-0.993-0.371-2.105-0.744-3.224c-0.56-1.919-1.798-4.275-2.603-5.457c-0.435-0.744-0.872-1.361-1.118-1.734 c-0.433-0.62-0.68-0.99-1.362-1.924c-0.185-0.246-0.371-0.494-0.62-0.802c0.127,0.06,0.249,0.182,0.436,0.182 c1.051,0.438,1.918,0.868,2.665,1.242c0.432,0.188,0.989,0.498,1.238,0.561c0.184,0.186,0.555,0.31,1.177,0.683 c0.188,0.124,0.498,0.308,0.993,0.62c0.496,0.308,1.175,0.738,1.797,1.173c0.559,0.438,1.114,0.807,1.614,1.242 c1.114,0.928,2.043,1.981,2.726,2.915c2.667,3.531,3.47,7.063,3.16,10.907c-0.06,1.056-0.37,2.545-0.557,3.346 c-0.125,0.376-0.125,0.5-0.125,0.625c-0.185,0.494-0.311,0.99-0.558,1.671c-0.124,0.37-0.246,0.742-0.311,0.93 c-0.183,0.434-0.433,1.052-0.68,1.55c2.667,1.859,5.204,3.903,7.311,5.766c1.987,1.794,3.537,3.408,4.775,4.77 c1.237,1.304,2.048,2.417,2.792,3.411c2.169,2.85,3.717,5.761,4.893,8.553c0.687,1.613,1.183,3.595,1.554,4.958 c0.121,0.621,0.247,1.116,0.309,1.551c0.062,0.432,0.123,0.93,0.186,1.611c0.124,0.746,0.124,1.676,0.188,2.543 c0,1.858-0.063,3.655-0.435,5.639c-0.559,3.162-1.425,6.075-2.977,9.549c-0.618,1.239-1.363,2.601-2.169,4.028 c-0.87,1.486-1.86,3.039-2.977,4.585c-1.115,1.486-2.294,3.039-3.844,4.773c-1.546,1.738-3.347,3.659-5.519,5.703 c-2.167,1.985-4.523,4.029-6.443,5.579c-1.859,1.55-3.224,2.542-5.082,3.84c-1.799,1.304-4.031,2.856-6.323,4.342 c-5.454,3.472-11.095,6.634-16.49,9.422c-0.99,0.496-1.919,0.932-2.914,1.428c-2.852,1.424-5.641,2.728-8.489,3.965 c-3.351,1.426-6.758,2.729-10.478,3.966c-0.31,0.062-0.557,0.189-0.865,0.25C275.916,151.895,268.661,153.819,264.758,154.809z M277.278,165.473c0.806-0.748,1.118-1.056,1.425-1.364c0.686-0.56,1.303-1.238,1.611-1.552c0.312-0.309,0.558-0.558,0.809-0.806 c0.37-0.371,0.561-0.495,0.868-0.932c0.248-0.246,0.37-0.494,0.56-0.677c0.182-0.312,0.372-0.561,0.431-0.746 c0.498-0.87,0.62-1.301,0.498-2.048c-0.063-0.433-0.498-0.99-0.929-1.485c-0.312-0.246-0.619-0.557-0.867-0.684 c-0.685-0.371-1.678-0.867-2.48-1.361c1.111-0.312,2.229-0.683,3.348-1.055c0.929-0.372,1.858-0.681,2.665-0.929 c1.299-0.436,2.291-0.807,3.285-1.178c0.991-0.374,1.981-0.746,3.159-1.241c0.746-0.31,1.549-0.618,2.233-0.931 c0.493-0.186,0.929-0.37,1.239-0.496c0.866-0.371,1.174-0.435,1.424-0.557c0.435-0.185,0.87-0.375,1.116-0.497 c0.373-0.185,0.869-0.373,1.179-0.498c1.054-0.496,2.541-1.116,3.531-1.608c0.995,1.238,1.986,2.542,2.914,3.844 c1.116,1.609,2.171,3.161,2.976,4.709c0.743,1.243,1.427,2.727,1.798,3.78c0.187,0.495,0.375,0.808,0.436,1.18 c0.187,0.683,0.369,1.427,0.493,2.106c0.312,2.421,0.37,5.023-2.727,7.812c-0.991,0.931-2.232,1.612-2.79,1.922l-0.186,0.062 c-0.371,0.188-0.743,0.435-1.052,0.556c-0.681,0.249-1.613,0.62-2.419,0.87c-0.063,0.063-0.185,0.123-0.744,0.311 c-0.617,0.189-1.673,0.556-3.036,0.93c-1.304,0.373-2.79,0.806-4.152,1.176l-0.188,0.062c-1.361,0.306-2.477,0.623-3.842,0.995 c-1.362,0.369-2.853,0.868-3.721,1.176c-0.807,0.184-0.99,0.251-1.113,0.311c-0.372,0.121-0.499,0.184-0.993,0.31 c-0.311,0.123-0.683,0.247-1.177,0.43c-0.127,0.065-0.186,0.065-0.309,0.129c-0.189,0.062-0.372,0.122-0.619,0.248 c-0.499,0.187-1.366,0.494-2.111,0.866c-0.744,0.31-1.363,0.623-1.858,0.868c-0.56,0.308-1.053,0.558-1.613,0.927 c-1.176,0.812-2.416,1.738-3.346,2.545c-1.488,1.363-2.604,2.727-3.347,4.153c-0.497,0.868-0.869,1.61-1.057,2.104 c-0.12,0.25-0.866,2.635-0.931,2.824l-0.868-2.199c-0.493-1.737-0.74-3.285-0.801-4.902c-0.064-2.541,0.308-4.829,1.669-7.683 c0.498-1.177,1.367-2.667,1.926-3.346c0.244-0.374,0.244-0.435,0.312-0.498c0.12-0.187,0.12-0.187,0.307-0.436 c0.558-0.68,0.806-0.989,1.116-1.361c0.061,0,0.061,0,0.497-0.56c0.431-0.497,1.364-1.489,2.414-2.603 C275.298,167.393,276.476,166.215,277.278,165.473z M397.906,189.275c0,3.472-0.865,6.878-3.16,10.228 c-0.992,1.487-2.541,3.037-3.843,4.03c-2.728,2.044-5.581,3.037-8.121,3.409c-0.867,0.125-1.551,0.186-2.543,0.186h-74.942h-11.403 h-11.343h-48.415H216.78H53.256c-3.349,0-6.695-0.869-10.043-3.166c-1.426-0.988-2.912-2.477-3.968-3.775 c-2.477-3.284-3.469-6.883-3.654-9.544c-0.062-1.988,0-3.849,0-5.71c0-3.53,0.867-6.878,3.164-10.223 c0.988-1.49,2.478-3.039,3.839-4.03c2.73-2.043,5.515-3.037,8.058-3.412c0.934-0.184,1.614-0.184,2.604-0.184H216.78h17.356h38.188 c-0.375,0.373-0.809,0.807-1.118,1.178c-0.375,0.375-0.499,0.433-1.056,1.119c-0.311,0.308-0.741,0.864-1.113,1.299 c-0.869,1.114-1.612,2.047-2.416,3.407c-0.437,0.743-0.872,1.61-1.181,2.356c-0.31,0.683-0.559,1.304-0.746,1.86 c-0.803,2.17-1.111,4.523-1.054,6.819c0,1.114,0.251,2.664,0.436,3.469c0.063,0.312,0.063,0.432,0.063,0.432 c0.063,0.187,0.063,0.187,0.125,0.437c0.897,3.329,3.78,7.01,3.78,7.01s1.274-2.991,2.604-6.076 c0.741-1.739,1.734-3.473,3.468-5.271c0.312-0.249,0.684-0.622,1.182-0.992c0.559-0.436,1.178-0.931,1.798-1.364 c0.678-0.375,1.237-0.804,1.671-0.991c0.372-0.186,0.497-0.31,0.682-0.373c0.682-0.373,1.737-0.806,1.984-0.929 c0.061-0.065,0.188-0.065,0.373-0.124c0.251-0.124,0.497-0.246,0.745-0.311c0.245-0.123,0.496-0.187,0.678-0.25 c0,0,0.062-0.059,0.93-0.37c0.808-0.246,2.422-0.806,4.216-1.364c1.797-0.556,3.722-1.055,5.022-1.424 c0.186-0.06,0.37-0.127,0.497-0.127c1.052-0.247,1.734-0.491,2.413-0.621c0.812-0.245,1.679-0.493,2.235-0.68 c0.617-0.122,0.926-0.249,1.237-0.309c0.499-0.185,1.057-0.372,1.367-0.439c0.68-0.244,1.423-0.493,2.105-0.738 c0.375-0.187,0.498-0.187,1.302-0.497c0.185-0.06,0.435-0.183,0.743-0.309c0.31-0.185,0.621-0.312,0.992-0.495 c0.62-0.309,1.179-0.622,1.673-0.995c0.495-0.247,0.867-0.557,1.181-0.801c0.371-0.249,0.68-0.562,0.99-0.867 c1.052-0.995,1.611-1.677,2.169-2.669h67.938c3.349,0,6.696,0.866,9.982,3.161c1.486,0.929,2.974,2.481,4.025,3.778 c2.481,3.227,3.412,6.884,3.659,9.613C397.968,185.493,397.906,187.417,397.906,189.275z"/><path fill="#2E3192" d="M288.251,69.515c0.991-0.621,2.231-1.489,3.348-2.354c0.867-0.684,1.61-1.302,2.295-1.983 c0.185-0.129,0.308-0.25,0.436-0.376c0.804-0.8,1.547-1.548,2.041-2.165c1.486-1.797,2.481-3.351,3.286-4.962 c1.86-4.399,2.48-9.047-0.991-13.637c-1.547-1.671-3.161-2.725-4.771-3.224c-1.984-0.678-3.968-0.678-5.89-0.372 c-1.861,0.312-3.659,0.992-5.453,2.047c-2.295,1.237-4.529,3.102-6.759,5.705c-0.683,0.802-1.427,1.671-2.17,2.725 c-0.742,1.054-1.487,2.233-2.293,3.533c-0.744,1.301-1.49,2.602-2.109,4.029c-0.926-0.431-2.107-0.929-3.098-1.3 c-0.496-0.189-0.93-0.312-1.364-0.435l-0.805,2.666c4.092,1.242,8.554,3.471,12.646,7.875c0.68,0.739,1.485,1.607,2.231,2.6 c0.68,0.99,1.484,2.168,2.042,3.04c0.748,1.237,1.244,2.103,1.679,2.972c0.182,0.376,0.372,0.747,0.556,1.117l2.479-1.18 c-0.188-0.371-0.62-1.3-1.117-2.228c-0.311-0.493-0.558-0.996-0.867-1.552c0.743-0.31,1.551-0.742,2.233-1.113 C286.58,70.505,287.259,70.139,288.251,69.515z M283.047,69.887l-0.496-0.495l-7.253-6.572c-1.552-1.178-2.915-2.106-4.468-2.85 c1.615-3.35,3.599-6.573,5.581-9.115c2.046-2.539,4.09-4.463,6.14-5.825c1.918-1.304,3.902-2.047,5.889-2.418 c1.855-0.373,3.839-0.186,5.454,0.56c0.122,0.061,0.185,0.061,0.249,0.122c0.864,0.374,1.609,0.93,2.228,1.552 c0.684,0.681,1.239,1.425,1.615,2.23c0.434,0.868,0.68,1.798,0.866,2.789c0.124,0.928,0.124,1.986,0,2.974 c0,0.373-0.062,0.746-0.68,2.108c-0.562,1.366-1.677,3.781-3.227,5.706c-0.31,0.432-0.681,0.804-1.052,1.237 c-1.304,1.424-2.79,2.603-4.401,3.779C287.446,67.161,285.336,68.586,283.047,69.887z"/></g><g><path fill="#ED1C24" fill-rule="evenodd" d="M384.396,191.323c2.54,0,4.582-2.113,4.582-4.651 c0-2.541-2.042-4.586-4.582-4.586c-2.545,0-4.654,2.045-4.654,4.586C379.741,189.209,381.851,191.323,384.396,191.323z" clip-rule="evenodd"/></g><g><g><g><path d="M364.302,133.865c0.396-0.081,0.972-0.136,1.5-0.136c0.837,0,1.386,0.165,1.76,0.503 c0.298,0.262,0.478,0.673,0.478,1.151c0,0.786-0.511,1.32-1.141,1.539v0.023c0.455,0.161,0.736,0.593,0.887,1.221 c0.198,0.843,0.342,1.427,0.457,1.661h-0.805c-0.1-0.171-0.233-0.69-0.396-1.445c-0.18-0.837-0.512-1.151-1.224-1.176h-0.736 v2.622h-0.78V133.865z M365.082,136.612h0.799c0.837,0,1.366-0.456,1.366-1.149c0-0.778-0.565-1.122-1.393-1.122 c-0.376,0-0.635,0.035-0.772,0.075V136.612z"/></g></g><g><path d="M366.218,143.681c-3.659,0-6.637-2.978-6.637-6.638s2.978-6.638,6.637-6.638c3.662,0,6.641,2.978,6.641,6.638 S369.88,143.681,366.218,143.681z M366.218,132.204c-2.668,0-4.839,2.171-4.839,4.839s2.171,4.84,4.839,4.84 c2.671,0,4.843-2.171,4.843-4.84S368.889,132.204,366.218,132.204z"/></g></g><g><path fill="#ED1C24" fill-rule="evenodd" d="M47.802,191.446c2.542,0,4.588-2.05,4.588-4.59 s-2.047-4.649-4.588-4.649c-2.542,0-4.647,2.109-4.647,4.649S45.26,191.446,47.802,191.446z" clip-rule="evenodd"/></g><g><g><g><path fill="#2E3192" d="M47.581,224.15h19.115v5.028h-6.411v15.327h-6.293v-15.327h-6.411V224.15z"/><path fill="#FFF" d="M62.083,246.304h-9.89v-15.327h-6.411v-8.626h22.712v8.626h-6.412V246.304z M55.791,242.707h2.696 v-15.327h6.411v-1.431H49.379v1.431h6.411V242.707z"/></g><g><path fill="#2E3192" d="M100.017,241.144H92.89l-1.007,3.361h-6.422l7.655-20.355h6.872l7.625,20.355h-6.583L100.017,241.144z M98.7,236.741l-2.225-7.313l-2.228,7.313H98.7z"/><path fill="#FFF" d="M110.208,246.304H99.694l-1.014-3.361h-4.452l-1.006,3.361H82.864l9.007-23.953h9.364L110.208,246.304z M102.367,242.707h2.653l-6.278-16.758h-1.445l3.831,12.591h-9.308l3.834-12.591h-1.292l-6.303,16.758h2.486l1.007-3.36h9.801 L102.367,242.707z"/></g><g><path fill="#2E3192" d="M147.064,241.53c0.789,0.545,1.304,0.893,1.547,1.027c0.358,0.205,0.846,0.442,1.456,0.71l-1.751,3.529 c-0.88-0.424-1.75-0.935-2.61-1.521c-0.863-0.588-1.464-1.032-1.808-1.326c-1.385,0.601-3.125,0.9-5.213,0.9 c-3.089,0-5.523-0.803-7.309-2.414c-2.104-1.908-3.16-4.586-3.16-8.038c0-3.35,0.925-5.954,2.771-7.808 c1.843-1.856,4.42-2.784,7.732-2.784c3.376,0,5.981,0.904,7.817,2.72c1.837,1.814,2.753,4.408,2.753,7.788 C149.289,237.32,148.548,239.725,147.064,241.53z M142.25,238.309c0.495-0.895,0.742-2.237,0.742-4.021 c0-2.053-0.378-3.516-1.14-4.397c-0.76-0.878-1.811-1.317-3.148-1.317c-1.246,0-2.256,0.448-3.029,1.345 c-0.777,0.899-1.166,2.3-1.166,4.204c0,2.22,0.38,3.776,1.137,4.674c0.756,0.897,1.793,1.346,3.116,1.346 c0.423,0,0.823-0.043,1.204-0.125c-0.527-0.508-1.36-0.989-2.492-1.441l0.981-2.262c0.555,0.1,0.985,0.227,1.296,0.373 c0.311,0.149,0.91,0.54,1.804,1.168C141.77,238.002,142,238.153,142.25,238.309z"/><path fill="#FFF" d="M149.137,249.188l-1.602-0.771c-0.935-0.45-1.891-1.007-2.842-1.653c-0.423-0.289-0.793-0.549-1.11-0.781 c-1.402,0.443-3.044,0.667-4.899,0.667c-3.533,0-6.397-0.968-8.514-2.878c-2.492-2.259-3.753-5.411-3.753-9.373 c0-3.827,1.108-6.88,3.294-9.077c2.182-2.198,5.213-3.313,9.007-3.313c3.853,0,6.908,1.091,9.082,3.241 c2.181,2.152,3.287,5.203,3.287,9.065c0,2.602-0.513,4.851-1.526,6.714c0.241,0.133,0.619,0.326,1.226,0.591l1.729,0.756 L149.137,249.188z M144.212,241.852l0.854,0.73c0.174,0.149,0.621,0.504,1.652,1.207c0.273,0.187,0.546,0.363,0.818,0.53 l0.118-0.238c-0.268-0.154-0.716-0.453-1.613-1.072l-1.608-1.112l1.242-1.51c1.204-1.464,1.815-3.507,1.815-6.073 c0-2.905-0.726-5.033-2.218-6.509c-1.498-1.481-3.642-2.201-6.554-2.201c-2.839,0-4.951,0.737-6.456,2.253 c-1.513,1.521-2.248,3.659-2.248,6.541c0,2.945,0.84,5.139,2.569,6.706c1.452,1.311,3.449,1.948,6.101,1.948 c1.834,0,3.347-0.254,4.497-0.753L144.212,241.852z M138.762,241.939c-1.845,0-3.398-0.687-4.492-1.986 c-1.049-1.243-1.559-3.151-1.559-5.831c0-2.371,0.524-4.131,1.603-5.38c1.111-1.287,2.629-1.968,4.391-1.968l0,0 c1.851,0,3.41,0.671,4.508,1.939c1.063,1.229,1.579,3.052,1.579,5.574c0,2.116-0.316,3.718-0.967,4.893l-0.742,1.341l0.564,0.544 l-3.302,0.71C139.836,241.884,139.304,241.939,138.762,241.939z M138.704,230.371c-0.723,0-1.237,0.223-1.667,0.722 c-0.477,0.552-0.729,1.6-0.729,3.029c0,0.956,0.079,1.667,0.187,2.193l0.877-2.025l1.403,0.254 c0.704,0.127,1.274,0.295,1.743,0.516c0.172,0.083,0.378,0.198,0.634,0.356c0.026-0.328,0.042-0.702,0.042-1.128 c0-2.096-0.44-2.918-0.702-3.221C140.234,230.769,139.766,230.371,138.704,230.371z"/></g><g><path fill="#2E3192" d="M185.829,224.15h6.279v12.128c0,1.202-0.187,2.338-0.561,3.405c-0.374,1.066-0.963,2.003-1.762,2.804 c-0.802,0.801-1.638,1.36-2.518,1.688c-1.22,0.448-2.687,0.676-4.397,0.676c-0.989,0-2.069-0.069-3.239-0.206 c-1.17-0.139-2.147-0.414-2.934-0.828c-0.788-0.411-1.504-0.995-2.156-1.751c-0.651-0.761-1.099-1.542-1.341-2.347 c-0.387-1.297-0.581-2.443-0.581-3.44V224.15h6.282v12.412c0,1.107,0.307,1.977,0.917,2.599c0.614,0.625,1.462,0.938,2.551,0.938 c1.078,0,1.925-0.305,2.54-0.925c0.613-0.61,0.92-1.485,0.92-2.611V224.15z"/><path fill="#FFF" d="M182.87,246.649c-1.049,0-2.209-0.073-3.448-0.219c-1.388-0.164-2.585-0.509-3.563-1.023 c-0.977-0.51-1.881-1.24-2.68-2.168c-0.817-0.955-1.389-1.963-1.701-3.004c-0.437-1.461-0.658-2.791-0.658-3.957v-13.927h9.879 v14.211c0,0.93,0.303,1.239,0.403,1.34c0.095,0.098,0.391,0.398,1.267,0.398c0.873,0,1.167-0.296,1.264-0.395 c0.267-0.265,0.398-0.715,0.398-1.344v-14.211h9.876v13.927c0,1.399-0.223,2.745-0.662,4c-0.463,1.319-1.199,2.49-2.187,3.479 c-0.98,0.98-2.044,1.688-3.165,2.103C186.47,246.384,184.782,246.649,182.87,246.649z M174.417,225.949v10.329 c0,0.817,0.17,1.801,0.506,2.926c0.166,0.554,0.498,1.124,0.983,1.69c0.505,0.586,1.037,1.021,1.623,1.327 c0.591,0.312,1.368,0.525,2.312,0.637c2.892,0.339,5.161,0.234,6.804-0.371c0.636-0.236,1.248-0.652,1.868-1.272 c0.612-0.613,1.05-1.309,1.337-2.127c0.304-0.869,0.459-1.815,0.459-2.81v-10.329h-2.682v10.613c0,1.619-0.488,2.927-1.449,3.885 c-0.953,0.96-2.237,1.45-3.81,1.45c-1.582,0-2.872-0.496-3.834-1.475c-0.951-0.972-1.433-2.269-1.433-3.86v-10.613H174.417z"/></g><g><path fill="#2E3192" d="M216.188,224.15h16.854v4.353h-10.543v3.242h9.779v4.147h-9.779v4.005h10.846v4.608h-17.157V224.15z"/><path fill="#FFF" d="M235.144,246.304h-20.755v-23.953h20.452v7.949h-0.765v7.391h-9.779v0.407h10.847V246.304z M217.986,242.707h13.56v-1.011H220.7v-7.602h9.778v-0.551H220.7v-6.84h10.544v-0.755h-13.258V242.707z"/></g><g><path fill="#2E3192" d="M256.719,244.505V224.15h10.48c1.942,0,3.429,0.172,4.455,0.5c1.029,0.334,1.859,0.95,2.485,1.854 c0.629,0.901,0.946,1.999,0.946,3.294c0,1.13-0.243,2.103-0.727,2.923c-0.479,0.816-1.144,1.481-1.985,1.989 c-0.536,0.327-1.272,0.594-2.211,0.803c0.752,0.254,1.297,0.505,1.638,0.754c0.232,0.168,0.566,0.527,1.004,1.073 c0.441,0.548,0.736,0.967,0.882,1.266l3.053,5.9h-7.106l-3.361-6.226c-0.424-0.807-0.806-1.332-1.138-1.571 c-0.45-0.314-0.965-0.471-1.536-0.471h-0.554v8.268H256.719z M263.044,232.39h2.645c0.283,0,0.84-0.093,1.657-0.275 c0.417-0.085,0.757-0.297,1.021-0.64c0.263-0.341,0.394-0.734,0.394-1.181c0-0.654-0.209-1.159-0.623-1.512 c-0.414-0.349-1.194-0.527-2.336-0.527h-2.757V232.39z"/><path fill="#FFF" d="M279.694,246.304H268.56l-3.717-6.885v6.885h-9.923v-23.953h12.279c2.135,0,3.771,0.192,5.003,0.586 c1.419,0.461,2.565,1.315,3.416,2.542c0.839,1.202,1.266,2.657,1.266,4.318c0,1.447-0.328,2.738-0.975,3.836 c-0.51,0.868-1.182,1.611-2.003,2.214c0.096,0.114,0.197,0.236,0.302,0.368c0.549,0.682,0.889,1.177,1.095,1.602L279.694,246.304 z M270.706,242.707h3.077l-1.694-3.274c-0.04-0.081-0.168-0.322-0.685-0.965c-0.472-0.589-0.648-0.735-0.668-0.751 c-0.064-0.048-0.346-0.229-1.15-0.501l-2.319-0.785c0.197,0.293,0.395,0.628,0.598,1.013L270.706,242.707z M258.517,242.707 h2.729v-8.268h2.352c0.597,0,1.161,0.106,1.687,0.317l4.488-0.999c0.924-0.207,1.416-0.431,1.666-0.584 c0.596-0.358,1.042-0.804,1.37-1.363c0.322-0.548,0.479-1.205,0.479-2.013c0-0.924-0.203-1.665-0.622-2.266 c-0.4-0.577-0.911-0.959-1.566-1.171c-0.583-0.188-1.74-0.412-3.899-0.412h-8.683V242.707z M265.688,234.188h-4.442v-7.731h4.555 c1.614,0,2.725,0.302,3.493,0.95c0.581,0.494,1.265,1.39,1.265,2.888c0,0.838-0.266,1.624-0.767,2.276 c-0.525,0.685-1.248,1.135-2.088,1.307C266.477,234.152,265.98,234.188,265.688,234.188z M264.843,230.591h0.846 c0.02-0.001,0.299-0.016,1.264-0.232c0.004-0.091,0.002-0.15-0.002-0.188c-0.145-0.044-0.488-0.116-1.149-0.116h-0.958V230.591z"/></g><g><path fill="#2E3192" d="M298.921,224.15h6.308v20.355h-6.308V224.15z"/><path fill="#FFF" d="M307.027,246.304h-9.905v-23.953h9.905V246.304z M300.72,242.707h2.71v-16.758h-2.71V242.707z"/></g><g><path fill="#2E3192" d="M342.142,241.144h-7.12l-1.009,3.361h-6.425l7.658-20.355h6.87l7.626,20.355h-6.582L342.142,241.144z M340.826,236.741l-2.225-7.313l-2.225,7.313H340.826z"/><path fill="#FFF" d="M352.336,246.304h-10.51l-1.019-3.361h-4.448l-1.009,3.361h-10.361l9.012-23.953h9.362L352.336,246.304z M344.495,242.707h2.652l-6.277-16.758h-1.447l3.83,12.591h-9.303l3.829-12.591h-1.289l-6.305,16.758h2.489l1.009-3.36h9.792 L344.495,242.707z"/></g><g><path fill="#2E3192" d="M370.568,237.763l5.977-0.376c0.133,0.974,0.395,1.715,0.798,2.223c0.648,0.824,1.575,1.236,2.784,1.236 c0.9,0,1.6-0.212,2.085-0.63c0.485-0.422,0.731-0.91,0.731-1.464c0-0.529-0.233-1-0.699-1.415 c-0.464-0.417-1.542-0.811-3.226-1.18c-2.763-0.617-4.729-1.444-5.907-2.469c-1.188-1.029-1.782-2.341-1.782-3.929 c0-1.046,0.305-2.032,0.914-2.965c0.604-0.93,1.519-1.66,2.739-2.191c1.219-0.53,2.889-0.798,5.009-0.798 c2.606,0,4.591,0.486,5.954,1.452c1.368,0.962,2.185,2.503,2.443,4.611l-5.936,0.347c-0.157-0.917-0.488-1.584-0.993-1.998 c-0.508-0.413-1.207-0.625-2.096-0.625c-0.734,0-1.285,0.152-1.654,0.468c-0.37,0.309-0.558,0.687-0.558,1.128 c0,0.324,0.153,0.616,0.459,0.875c0.298,0.269,1.003,0.517,2.112,0.749c2.753,0.594,4.724,1.191,5.913,1.802 c1.191,0.603,2.058,1.357,2.599,2.254c0.542,0.897,0.813,1.902,0.813,3.012c0,1.304-0.361,2.509-1.083,3.612 c-0.724,1.1-1.732,1.935-3.025,2.502c-1.3,0.571-2.938,0.855-4.91,0.855c-3.463,0-5.861-0.668-7.195-2 S370.744,239.819,370.568,237.763z"/><path fill="#FFF" d="M380.03,246.649c-3.993,0-6.763-0.826-8.466-2.525c-1.639-1.636-2.576-3.725-2.788-6.207l-0.155-1.833 l4.346-0.272c-0.382-0.242-0.727-0.496-1.036-0.767c-1.568-1.357-2.399-3.188-2.399-5.284c0-1.395,0.405-2.724,1.206-3.948 c0.793-1.221,1.98-2.184,3.526-2.857c1.467-0.637,3.34-0.947,5.728-0.947c3.012,0,5.3,0.584,6.994,1.784 c1.791,1.258,2.865,3.23,3.188,5.858l0.234,1.904l-2.769,0.161c0.906,0.629,1.623,1.374,2.135,2.224 c0.712,1.18,1.072,2.506,1.072,3.941c0,1.654-0.463,3.2-1.376,4.597c-0.917,1.395-2.197,2.459-3.809,3.165 C384.144,246.31,382.248,246.649,380.03,246.649z M372.741,239.429c0.294,0.82,0.747,1.531,1.364,2.148 c0.674,0.673,2.25,1.475,5.925,1.475c1.716,0,3.125-0.237,4.187-0.704c0.978-0.428,1.713-1.032,2.246-1.844 c0.529-0.809,0.787-1.668,0.787-2.624c0-0.782-0.181-1.464-0.555-2.083c-0.364-0.604-0.993-1.134-1.871-1.578 c-1.046-0.536-2.887-1.09-5.479-1.648c-1.492-0.312-2.375-0.663-2.938-1.172c-0.663-0.559-1.052-1.357-1.052-2.21 c0-0.973,0.429-1.864,1.207-2.512c0.679-0.579,1.629-0.882,2.803-0.882c1.304,0,2.391,0.346,3.229,1.026 c0.485,0.398,0.871,0.906,1.156,1.518l2.356-0.138c-0.288-0.625-0.684-1.112-1.195-1.472c-1.056-0.748-2.71-1.126-4.92-1.126 c-1.857,0-3.302,0.218-4.292,0.648c-0.899,0.393-1.538,0.891-1.948,1.522c-0.42,0.644-0.623,1.292-0.623,1.985 c0,1.066,0.369,1.882,1.161,2.569c0.657,0.572,2.075,1.393,5.122,2.072c2.063,0.452,3.311,0.946,4.036,1.599 c1.069,0.952,1.294,2.022,1.294,2.752c0,0.754-0.233,1.854-1.352,2.822c-0.825,0.711-1.921,1.069-3.263,1.069 c-2.22,0-3.509-1.046-4.198-1.923c-0.322-0.406-0.582-0.885-0.78-1.443L372.741,239.429z M378.476,237.878 c0.105,0.364,0.219,0.542,0.276,0.614c0.218,0.277,0.548,0.555,1.375,0.555c0.636,0,0.858-0.148,0.912-0.194 c0.047-0.042,0.075-0.073,0.092-0.095c-0.015-0.013-0.042-0.041-0.084-0.078c-0.01-0.008-0.461-0.338-2.413-0.766 C378.58,237.902,378.528,237.89,378.476,237.878z"/></g></g><g><g><path fill="#2E3192" d="M47.581,224.15h19.115v5.028h-6.411v15.327h-6.293v-15.327h-6.411V224.15z"/></g><g><path fill="#2E3192" d="M100.017,241.144H92.89l-1.007,3.361h-6.422l7.655-20.355h6.872l7.625,20.355h-6.583L100.017,241.144z M98.7,236.741l-2.225-7.313l-2.228,7.313H98.7z"/></g><g><path fill="#2E3192" d="M147.064,241.53c0.789,0.545,1.304,0.893,1.547,1.027c0.358,0.205,0.846,0.442,1.456,0.71l-1.751,3.529 c-0.88-0.424-1.75-0.935-2.61-1.521c-0.863-0.588-1.464-1.032-1.808-1.326c-1.385,0.601-3.125,0.9-5.213,0.9 c-3.089,0-5.523-0.803-7.309-2.414c-2.104-1.908-3.16-4.586-3.16-8.038c0-3.35,0.925-5.954,2.771-7.808 c1.843-1.856,4.42-2.784,7.732-2.784c3.376,0,5.981,0.904,7.817,2.72c1.837,1.814,2.753,4.408,2.753,7.788 C149.289,237.32,148.548,239.725,147.064,241.53z M142.25,238.309c0.495-0.895,0.742-2.237,0.742-4.021 c0-2.053-0.378-3.516-1.14-4.397c-0.76-0.878-1.811-1.317-3.148-1.317c-1.246,0-2.256,0.448-3.029,1.345 c-0.777,0.899-1.166,2.3-1.166,4.204c0,2.22,0.38,3.776,1.137,4.674c0.756,0.897,1.793,1.346,3.116,1.346 c0.423,0,0.823-0.043,1.204-0.125c-0.527-0.508-1.36-0.989-2.492-1.441l0.981-2.262c0.555,0.1,0.985,0.227,1.296,0.373 c0.311,0.149,0.91,0.54,1.804,1.168C141.77,238.002,142,238.153,142.25,238.309z"/></g><g><path fill="#2E3192" d="M185.829,224.15h6.279v12.128c0,1.202-0.187,2.338-0.561,3.405c-0.374,1.066-0.963,2.003-1.762,2.804 c-0.802,0.801-1.638,1.36-2.518,1.688c-1.22,0.448-2.687,0.676-4.397,0.676c-0.989,0-2.069-0.069-3.239-0.206 c-1.17-0.139-2.147-0.414-2.934-0.828c-0.788-0.411-1.504-0.995-2.156-1.751c-0.651-0.761-1.099-1.542-1.341-2.347 c-0.387-1.297-0.581-2.443-0.581-3.44V224.15h6.282v12.412c0,1.107,0.307,1.977,0.917,2.599c0.614,0.625,1.462,0.938,2.551,0.938 c1.078,0,1.925-0.305,2.54-0.925c0.613-0.61,0.92-1.485,0.92-2.611V224.15z"/></g><g><path fill="#2E3192" d="M216.188,224.15h16.854v4.353h-10.543v3.242h9.779v4.147h-9.779v4.005h10.846v4.608h-17.157V224.15z"/></g><g><path fill="#2E3192" d="M256.719,244.505V224.15h10.48c1.942,0,3.429,0.172,4.455,0.5c1.029,0.334,1.859,0.95,2.485,1.854 c0.629,0.901,0.946,1.999,0.946,3.294c0,1.13-0.243,2.103-0.727,2.923c-0.479,0.816-1.144,1.481-1.985,1.989 c-0.536,0.327-1.272,0.594-2.211,0.803c0.752,0.254,1.297,0.505,1.638,0.754c0.232,0.168,0.566,0.527,1.004,1.073 c0.441,0.548,0.736,0.967,0.882,1.266l3.053,5.9h-7.106l-3.361-6.226c-0.424-0.807-0.806-1.332-1.138-1.571 c-0.45-0.314-0.965-0.471-1.536-0.471h-0.554v8.268H256.719z M263.044,232.39h2.645c0.283,0,0.84-0.093,1.657-0.275 c0.417-0.085,0.757-0.297,1.021-0.64c0.263-0.341,0.394-0.734,0.394-1.181c0-0.654-0.209-1.159-0.623-1.512 c-0.414-0.349-1.194-0.527-2.336-0.527h-2.757V232.39z"/></g><g><path fill="#2E3192" d="M298.921,224.15h6.308v20.355h-6.308V224.15z"/></g><g><path fill="#2E3192" d="M342.142,241.144h-7.12l-1.009,3.361h-6.425l7.658-20.355h6.87l7.626,20.355h-6.582L342.142,241.144z M340.826,236.741l-2.225-7.313l-2.225,7.313H340.826z"/></g><g><path fill="#2E3192" d="M370.568,237.763l5.977-0.376c0.133,0.974,0.395,1.715,0.798,2.223c0.648,0.824,1.575,1.236,2.784,1.236 c0.9,0,1.6-0.212,2.085-0.63c0.485-0.422,0.731-0.91,0.731-1.464c0-0.529-0.233-1-0.699-1.415 c-0.464-0.417-1.542-0.811-3.226-1.18c-2.763-0.617-4.729-1.444-5.907-2.469c-1.188-1.029-1.782-2.341-1.782-3.929 c0-1.046,0.305-2.032,0.914-2.965c0.604-0.93,1.519-1.66,2.739-2.191c1.219-0.53,2.889-0.798,5.009-0.798 c2.606,0,4.591,0.486,5.954,1.452c1.368,0.962,2.185,2.503,2.443,4.611l-5.936,0.347c-0.157-0.917-0.488-1.584-0.993-1.998 c-0.508-0.413-1.207-0.625-2.096-0.625c-0.734,0-1.285,0.152-1.654,0.468c-0.37,0.309-0.558,0.687-0.558,1.128 c0,0.324,0.153,0.616,0.459,0.875c0.298,0.269,1.003,0.517,2.112,0.749c2.753,0.594,4.724,1.191,5.913,1.802 c1.191,0.603,2.058,1.357,2.599,2.254c0.542,0.897,0.813,1.902,0.813,3.012c0,1.304-0.361,2.509-1.083,3.612 c-0.724,1.1-1.732,1.935-3.025,2.502c-1.3,0.571-2.938,0.855-4.91,0.855c-3.463,0-5.861-0.668-7.195-2 S370.744,239.819,370.568,237.763z"/></g></g></g></svg>