<svg width="499" height="725" viewBox="0 0 499 725" fill="none" xmlns="http://www.w3.org/2000/svg">
<path d="M249.133 0.00800069C128.363 0.00800069 0 30.1533 0 86.0293V638.309C0 694.169 128.355 724.315 249.133 724.315C369.904 724.315 498.267 694.169 498.267 638.309V86.016C498.267 30.1467 369.907 0 249.133 0V0.00800069ZM480.76 449.248C480.76 481.66 385.64 517.769 249.133 517.769C112.627 517.769 17.5067 481.66 17.5067 449.248V319.144C56.6267 353.56 155.16 371.821 249.133 371.821C343.107 371.821 441.64 353.561 480.76 319.144V449.248ZM480.76 285.795C480.76 318.191 385.64 354.3 249.133 354.3C112.627 354.3 17.5067 318.191 17.5067 285.795V119.355C56.6267 153.771 155.16 172.032 249.133 172.032C343.107 172.032 441.64 153.772 480.76 119.355V285.795ZM249.133 17.5147C385.64 17.5147 480.76 53.624 480.76 86.036C480.76 118.432 385.64 154.541 249.133 154.541C112.627 154.541 17.5067 118.432 17.5067 86.036C17.5067 53.624 112.637 17.5147 249.133 17.5147ZM249.133 706.821C112.627 706.821 17.5067 670.712 17.5067 638.316V482.583C56.6267 516.999 155.16 535.271 249.133 535.271C343.107 535.271 441.64 517.011 480.76 482.583V638.316C480.76 670.712 385.629 706.821 249.133 706.821Z" fill="black"/>
<path d="M171.2 122.818C196.397 122.818 216.897 106.307 216.897 86.0202C216.897 65.7336 196.397 49.2229 171.2 49.2229C146.003 49.2229 125.503 65.7336 125.503 86.0202C125.503 106.312 146.013 122.818 171.2 122.818ZM171.2 66.7242C186.481 66.7242 199.397 75.568 199.397 86.0216C199.397 96.4746 186.481 105.319 171.2 105.319C155.919 105.319 143.003 96.4752 143.003 86.0216C143.003 75.5685 155.914 66.7242 171.2 66.7242Z" fill="black"/>
</svg>
