<svg xmlns="http://www.w3.org/2000/svg" width="747" height="631" fill="none" viewBox="0 0 747 631"><path fill="#000" d="M11.671 151.675C18.1084 151.675 23.3376 156.914 23.3376 163.341V490.261C23.3376 522.439 49.5043 548.616 81.671 548.616H93.374V571.949C93.374 578.402 98.5876 583.616 105.041 583.616H106.218C111.645 610.204 135.207 630.283 163.374 630.283C191.535 630.283 215.114 610.204 220.53 583.616H221.696C228.15 583.616 233.363 578.402 233.363 571.949V548.616H513.31V571.949C513.31 578.402 518.523 583.616 524.976 583.616L526.164 583.621C531.575 610.209 555.143 630.288 583.309 630.288C611.471 630.288 635.049 610.209 640.455 583.621H641.642C648.095 583.621 653.309 578.408 653.309 571.954V548.621H665.022C697.189 548.621 723.356 522.438 723.356 490.266C723.351 490.214 723.33 490.194 723.33 490.147V163.333C723.33 156.906 728.559 151.667 734.996 151.667C741.449 151.667 746.663 146.437 746.663 140V58.3333C746.663 51.8959 741.449 46.6667 734.996 46.6667H733.809C728.382 20.0787 704.82 0 676.653 0H69.9995C41.8382 0 18.2595 20.0787 12.8542 46.6667H11.6667C5.2136 46.6667 0 51.8959 0 58.3333V140C0 146.443 5.2136 151.667 11.6667 151.667L11.671 151.675ZM723.338 70.0079V81.6746H23.3376V70.0079H723.338ZM163.378 606.955C148.19 606.955 135.367 597.168 130.534 583.621H196.227C191.388 597.168 178.566 606.955 163.378 606.955ZM210.028 560.288H116.706V548.621H210.028V560.288ZM583.322 606.955C568.134 606.955 555.311 597.168 550.478 583.621H616.171C611.332 597.168 598.51 606.955 583.322 606.955ZM629.988 560.288H536.655V548.621H629.988V560.288ZM700.01 163.341V490.261C700.01 490.282 700.02 490.308 700.02 490.345C699.984 509.605 684.307 525.287 665.031 525.287H643.004C642.535 525.23 642.129 525.016 641.65 525.016C641.171 525.016 640.765 525.24 640.296 525.287H526.337C525.868 525.23 525.462 525.016 524.983 525.016C524.504 525.016 524.098 525.24 523.629 525.287H223.056C222.587 525.23 222.181 525.016 221.701 525.016C221.222 525.016 220.816 525.24 220.347 525.287H106.405C105.936 525.23 105.53 525.016 105.05 525.016C104.571 525.016 104.165 525.24 103.696 525.287H81.6803C62.383 525.287 46.6803 509.574 46.6803 490.266V163.333C46.6803 148.145 36.8939 135.311 23.347 130.478V104.999H128.159V128.333C128.159 134.77 133.373 139.999 139.826 139.999C146.279 139.999 151.492 134.77 151.492 128.333V104.999H221.492V128.333C221.492 134.77 226.706 139.999 233.159 139.999C239.612 139.999 244.826 134.77 244.826 128.333V104.999H314.826V128.333C314.826 134.77 320.039 139.999 326.492 139.999C332.945 139.999 338.159 134.77 338.159 128.333V104.999H408.159V128.333C408.159 134.77 413.373 139.999 419.826 139.999C426.279 139.999 431.492 134.77 431.492 128.333V104.999H501.492V128.333C501.492 134.77 506.706 139.999 513.159 139.999C519.612 139.999 524.826 134.77 524.826 128.333V104.999H594.826V128.333C594.826 134.77 600.039 139.999 606.492 139.999C612.945 139.999 618.159 134.77 618.159 128.333V104.999H723.347V130.478C709.8 135.311 700.014 148.145 700.014 163.333L700.01 163.341ZM70.0096 23.3412H676.663C691.851 23.3412 704.674 33.1172 709.507 46.6746H37.1603C41.9936 33.1172 54.8163 23.3412 70.0043 23.3412H70.0096Z"/><path fill="#000" d="M391.391 271.088C388.276 273.187 386.105 276.572 386.105 280.598C386.105 287.036 391.318 292.265 397.771 292.265H430.907H430.918C432.444 292.265 433.965 291.952 435.397 291.353C435.548 291.296 435.642 291.176 435.793 291.109C435.886 291.062 436.001 291.088 436.095 291.041C436.621 290.786 436.959 290.327 437.412 290.015C437.574 289.9 437.751 289.807 437.902 289.687C438.308 289.385 438.787 289.218 439.162 288.848C439.277 288.734 439.324 288.567 439.418 288.442C439.918 287.906 440.225 287.275 440.621 286.656C440.949 286.13 441.402 285.687 441.647 285.104C441.73 284.916 441.751 284.744 441.808 284.557C442.017 283.994 442.043 283.39 442.147 282.807C442.324 281.932 442.532 281.077 442.496 280.182C442.475 279.619 442.272 279.083 442.168 278.515C442.017 277.697 441.97 276.869 441.642 276.088C441.595 275.958 441.48 275.864 441.418 275.739C441.371 275.624 441.381 275.504 441.324 275.4L424.829 242.244C421.96 236.468 414.933 234.125 409.184 236.994C404.226 239.458 402.033 244.953 403.257 250.119C370.637 239.046 333.096 246.395 307.148 272.343C289.508 289.947 279.798 313.385 279.798 338.317C279.798 344.77 285.012 349.983 291.465 349.983C297.918 349.983 303.132 344.77 303.132 338.317C303.132 319.614 310.413 302.057 323.642 288.838C341.997 270.515 367.991 264.796 391.391 271.088Z"/><path fill="#000" d="M454.818 326.635C448.365 326.635 443.151 331.848 443.151 338.301C443.151 357.025 435.87 374.619 422.667 387.837C404.339 406.144 378.355 411.868 354.954 405.583C358.021 403.484 360.157 400.124 360.157 396.119C360.157 389.666 354.943 384.452 348.49 384.452H315.646C315.401 384.452 315.167 384.489 314.922 384.499C314.422 384.52 313.932 384.707 313.427 384.791C312.563 384.942 311.688 385.015 310.86 385.353C310.719 385.421 310.615 385.53 310.474 385.598C310.36 385.645 310.24 385.635 310.146 385.692C309.646 385.937 309.328 386.379 308.886 386.681C308.641 386.843 308.406 386.963 308.188 387.15C307.86 387.405 307.453 387.525 307.151 387.838C307.151 387.838 307.141 387.848 307.141 387.859C307.011 387.973 306.953 388.14 306.849 388.265C306.349 388.812 306.021 389.442 305.636 390.062C305.24 390.713 304.797 391.296 304.516 392.036C304.224 392.807 304.156 393.635 304.026 394.463C303.943 395.036 303.698 395.536 303.698 396.129C303.698 396.26 303.766 396.364 303.766 396.478C303.787 397.223 304.047 397.958 304.219 398.708C304.406 399.489 304.5 400.281 304.839 400.994C304.896 401.098 304.875 401.228 304.932 401.322L321.454 434.458C323.495 438.552 327.615 440.922 331.907 440.922C333.646 440.922 335.428 440.536 337.099 439.698C342.068 437.224 344.261 431.693 343.001 426.526C352.777 429.849 362.965 431.625 373.183 431.625C397.09 431.625 420.981 422.536 439.167 404.338C456.782 386.724 466.49 363.259 466.49 338.307C466.485 331.865 461.271 326.635 454.818 326.635Z"/></svg>