<svg width="82" height="88" viewBox="0 0 82 88" fill="none" xmlns="http://www.w3.org/2000/svg">
<path d="M40.664 0.000588009C40.4414 0.000588009 40.2181 0.0033791 39.9955 0.00686787C24.201 0.2483 10.3327 9.04576 3.80211 22.9694C-3.1706 37.836 -0.42278 54.8186 10.9758 67.2868C22.1008 79.4557 38.2396 83.7853 53.3693 78.7664L59.3346 86.9184C59.6946 87.4103 60.3142 87.6469 60.9066 87.5261C61.5081 87.404 61.9777 86.9449 62.1187 86.349L65.3647 72.4029C80.6178 60.6464 85.5906 39.0407 76.884 21.855C70.0277 8.32812 56.1936 -7.27884e-07 40.6638 -7.27884e-07L40.664 0.000588009ZM66.5721 67.2144L68.6164 58.4309C68.6304 58.3716 68.615 58.3151 68.6213 58.2558C68.6283 58.2 68.6555 58.1525 68.6562 58.0953C68.6569 58.0472 68.6339 58.006 68.6304 57.9586C68.6213 57.8483 68.6011 57.7457 68.5697 57.6411C68.5425 57.5483 68.5118 57.4624 68.4685 57.3773C68.4211 57.2845 68.3645 57.2029 68.2997 57.1212C68.2396 57.0466 68.1796 56.9775 68.1078 56.9147C68.0289 56.8463 67.9445 56.7919 67.8524 56.7389C67.7666 56.69 67.6814 56.6496 67.5865 56.6175C67.537 56.6007 67.4993 56.5658 67.4477 56.554C67.3284 56.5247 67.2098 56.5128 67.0939 56.5128C67.0883 56.5128 67.0834 56.5156 67.0779 56.5156L63.4362 56.48C71.3063 45.3773 69.9909 29.5002 60.0024 19.94C54.6631 14.8268 47.627 12.1983 40.5571 12.1983C35.1628 12.1983 29.7509 13.7306 25.0619 16.8602C14.2459 24.0828 9.77395 38.1221 14.4259 50.2456C19.2921 62.9259 32.9871 70.409 46.318 67.6638C47.1637 67.488 47.7072 66.6625 47.53 65.8168C47.5244 65.7896 47.5049 65.7701 47.4979 65.7429C47.4561 65.5056 47.3772 65.2733 47.2216 65.0688L42.9206 59.4058L65.1293 59.6235L59.8445 82.3235L55.2261 76.0108C55.2079 75.9857 55.18 75.9745 55.1605 75.9508C55.0893 75.8636 55.0056 75.798 54.9184 75.7289C54.8444 75.6703 54.7767 75.6089 54.6944 75.5656C54.6016 75.5161 54.5039 75.4909 54.4027 75.4609C54.312 75.4344 54.2255 75.403 54.1306 75.3933C54.0301 75.3821 53.9303 75.3961 53.8278 75.4051C53.7252 75.4142 53.6261 75.4212 53.5256 75.4512C53.4942 75.4602 53.4621 75.454 53.4307 75.4658C39.202 80.6355 23.8144 76.7023 13.2843 65.178C2.75585 53.6614 0.209704 37.9945 6.63528 24.2938C12.6493 11.4634 25.4518 3.35516 40.0439 3.13366C40.2511 3.13087 40.4563 3.12738 40.6607 3.12738C55.0053 3.12738 67.7781 10.8048 74.0943 23.2658C81.5052 37.8909 78.1672 55.9724 66.5732 67.2152L66.5721 67.2144ZM38.499 58.7575L43.2201 64.971C32.2158 66.0923 21.3669 59.6129 17.3442 49.1263C13.2106 38.3549 17.1858 25.8779 26.7954 19.4617C36.4175 13.0359 49.4739 14.1893 57.8408 22.1997C67.2633 31.2203 68.0037 46.5662 59.5063 56.4425L39.7591 56.2499H39.7437C39.1548 56.2499 38.6113 56.5827 38.3454 57.1109C38.0796 57.6447 38.1375 58.2832 38.4975 58.7576L38.499 58.7575Z" fill="#E1393B"/>
</svg>
