<svg width="641" height="394" viewBox="0 0 641 394" fill="none" xmlns="http://www.w3.org/2000/svg">
<path d="M640.893 72.62L251.373 0L0 30.74V364.98L251.307 393.444L316.437 382.58L378.301 372.994L428.357 363.913L640.891 328.46L640.893 72.62ZM260.4 20.6773L284.968 25.2555V368.896L260.4 372.994V20.6773ZM303.635 28.7295L322.301 32.2087V362.662L303.635 365.777V28.7295ZM340.968 359.556V35.6895L359.635 39.1687V356.449L340.968 359.556ZM378.301 42.6495L396.968 46.1287V350.222L378.301 353.337V42.6495ZM415.635 49.6079L434.301 53.0871V343.994L415.635 347.108V49.6079ZM452.968 56.5663L471.635 60.0455V337.752L452.968 340.867V56.5663ZM490.301 63.5247L508.968 67.0039V331.537L490.301 334.652V63.5247ZM527.635 70.4883L546.301 73.9675V325.301L527.635 328.415V70.4883ZM564.968 77.4467L583.635 80.9259V319.086L564.968 322.2V77.4467ZM18.6613 47.2494L241.728 19.9733V373.56L18.6613 348.309V47.2494ZM622.221 312.636L602.295 315.959V84.4123L622.221 88.1311V312.636Z" fill="black"/>
<path d="M221.147 47.22L28.6267 67.824V336.037H47.2934V84.5973L223.12 65.764L221.147 47.22Z" fill="black"/>
</svg>
